<?xml version="1.0" encoding="UTF-8"?>
<svg id="_Слой_1" data-name="Слой 1" xmlns="http://www.w3.org/2000/svg" viewBox="0 0 200 200">
  <defs>
    <style>
      .cls-1 {
        fill: #fff;
        stroke-width: 0px;
      }
    </style>
  </defs>
  <polygon class="cls-1" points="137.58 92.83 108.08 92.83 108.08 63.33 93.34 63.33 93.34 92.83 63.84 92.83 63.84 107.58 93.34 107.58 93.34 137.08 108.08 137.08 108.08 107.58 137.58 107.58 137.58 92.83"/>
  <path class="cls-1" d="M100.71,174.16c-40.78,0-73.95-33.18-73.95-73.95S59.93,26.25,100.71,26.25s73.95,33.18,73.95,73.95-33.18,73.95-73.95,73.95ZM100.71,29.24c-39.13,0-70.97,31.84-70.97,70.97s31.84,70.97,70.97,70.97,70.97-31.84,70.97-70.97S139.84,29.24,100.71,29.24ZM114.52,143.52h-27.62v-29.5h-29.5v-27.62h29.5v-29.5h27.62v29.5h29.5v27.62h-29.5v29.5ZM89.89,140.53h21.65v-29.5h29.5v-21.65h-29.5v-29.5h-21.65v29.5h-29.5v21.65h29.5v29.5Z"/>
  <path class="cls-1" d="M76.51,57.6c-.02.05-.03.1-.05.15,0,0,0,0,0,0"/>
  <g>
    <path class="cls-1" d="M43.24,96.8c-1.04.63-1.88.71-1.88.71,0,0-.28-1.12.11-2.17.61-1.62,2.08-1.79,2.74-1.76-.33.26-.85.7-1.16,1.07-.93,1.1-1.07,1.88-1.07,1.88,0,0,.27-.71,1.21-1.8.32-.37.81-.83,1.1-1.12.18.63.57,2.2-1.05,3.18Z"/>
    <g>
      <path class="cls-1" d="M95.51,38.19c.94-.41,1.65-.39,1.65-.39,0,0,.11.96-.33,1.8-.68,1.29-1.94,1.27-2.48,1.18.3-.18.78-.49,1.09-.77.9-.82,1.1-1.46,1.1-1.46,0,0-.31.56-1.21,1.37-.31.28-.77.6-1.04.81-.08-.54-.24-1.91,1.23-2.55Z"/>
      <path class="cls-1" d="M44.34,71.52c-1.05-1.38-2.12-1.92-2.12-1.92,0,0-.96,1.33-.99,2.94-.05,2.47,1.82,3.46,2.71,3.77-.3-.52-.76-1.37-.98-2.03-.66-1.95-.43-3.06-.43-3.06,0,0,0,1.08.67,3.02.23.66.64,1.52.87,2.06.57-.74,1.91-2.62.27-4.77Z"/>
      <path class="cls-1" d="M53.85,59.19c-1.55-.06-2.54.36-2.54.36,0,0,.37,1.42,1.46,2.36,1.68,1.44,3.43.72,4.15.29-.53-.09-1.38-.26-1.96-.49-1.72-.67-2.36-1.45-2.36-1.45,0,0,.74.63,2.47,1.27.59.22,1.42.43,1.92.57-.19-.81-.72-2.82-3.14-2.92Z"/>
      <path class="cls-1" d="M57.12,63.45c-1.06-.04-1.74.25-1.74.25,0,0,.25.97,1,1.62,1.15.99,2.35.5,2.84.2-.36-.06-.94-.18-1.34-.33-1.18-.46-1.62-.99-1.62-.99,0,0,.51.43,1.69.87.4.15.97.29,1.31.39-.13-.56-.49-1.93-2.15-2Z"/>
      <path class="cls-1" d="M53.46,72.71c-1.06-.04-1.74.25-1.74.25,0,0,.25.97,1,1.62,1.15.99,2.35.5,2.84.2-.36-.06-.94-.18-1.34-.33-1.18-.46-1.62-.99-1.62-.99,0,0,.51.43,1.69.87.4.15.97.29,1.31.39-.13-.56-.49-1.93-2.15-2Z"/>
      <path class="cls-1" d="M63.24,61.17c-1.06-.04-1.74.25-1.74.25,0,0,.25.97,1,1.62,1.15.99,2.35.5,2.84.2-.36-.06-.94-.18-1.34-.33-1.18-.46-1.62-.99-1.62-.99,0,0,.51.43,1.69.87.4.15.97.29,1.31.39-.13-.56-.49-1.93-2.15-2Z"/>
      <path class="cls-1" d="M71.68,66.46c.14-1.21-.14-2-.14-2,0,0-1.13.21-1.93,1-1.22,1.23-.76,2.63-.46,3.22.1-.41.28-1.06.49-1.5.62-1.31,1.27-1.76,1.27-1.76,0,0-.53.54-1.13,1.85-.2.44-.42,1.08-.56,1.46.64-.1,2.24-.4,2.46-2.28Z"/>
      <path class="cls-1" d="M63.18,65.23c-.57-.71-1.13-.98-1.13-.98,0,0-.49.71-.49,1.55,0,1.29.99,1.79,1.46,1.95-.16-.27-.41-.71-.54-1.05-.37-1.02-.26-1.6-.26-1.6,0,0,0,.57.38,1.58.13.34.35.79.48,1.07.29-.39.97-1.4.09-2.5Z"/>
      <path class="cls-1" d="M60.22,70.8c.18-1.52-.17-2.52-.17-2.52,0,0-1.43.26-2.43,1.27-1.54,1.55-.96,3.32-.59,4.07.13-.51.36-1.34.62-1.9.78-1.65,1.6-2.22,1.6-2.22,0,0-.67.69-1.43,2.33-.26.56-.53,1.36-.7,1.85.81-.12,2.83-.5,3.1-2.87Z"/>
      <path class="cls-1" d="M50.51,75.31c.18-1.52-.17-2.52-.17-2.52,0,0-1.43.26-2.43,1.27-1.54,1.55-.96,3.32-.59,4.07.13-.51.36-1.34.62-1.9.78-1.65,1.6-2.22,1.6-2.22,0,0-.67.69-1.43,2.33-.26.56-.53,1.36-.7,1.85.81-.12,2.83-.5,3.1-2.87Z"/>
      <path class="cls-1" d="M75.23,74.34c-.82-1.14-1.68-1.61-1.68-1.61,0,0-.81,1.06-.87,2.36-.09,2.01,1.4,2.85,2.11,3.13-.23-.43-.58-1.13-.75-1.67-.49-1.6-.28-2.5-.28-2.5,0,0-.03.88.47,2.47.17.54.49,1.25.66,1.69.48-.59,1.61-2.09.33-3.87Z"/>
      <path class="cls-1" d="M80.94,50.24c-1.04-.63-1.88-.7-1.88-.7,0,0-.28,1.12.11,2.17.61,1.62,2.08,1.78,2.74,1.76-.33-.26-.85-.7-1.16-1.07-.93-1.1-1.07-1.88-1.07-1.88,0,0,.27.71,1.21,1.8.32.37.81.83,1.1,1.11.18-.63.57-2.2-1.05-3.18Z"/>
      <path class="cls-1" d="M84.57,40.42c-.81-.91-1.58-1.23-1.58-1.23,0,0-.6.98-.54,2.1.1,1.73,1.46,2.32,2.09,2.49-.24-.35-.6-.92-.79-1.37-.56-1.33-.46-2.12-.46-2.12,0,0,.05.76.62,2.08.19.45.53,1.03.72,1.39.36-.55,1.2-1.93-.06-3.35Z"/>
      <path class="cls-1" d="M63.53,84.26c-1.12.62-2,.66-2,.66,0,0-.25-1.18.21-2.27.71-1.68,2.26-1.79,2.95-1.73-.36.26-.92.7-1.27,1.08-1.03,1.12-1.21,1.93-1.21,1.93,0,0,.32-.73,1.35-1.84.35-.38.89-.84,1.2-1.13.16.67.51,2.34-1.24,3.3Z"/>
      <path class="cls-1" d="M90.96,54.66c1.2.18,2-.08,2-.08,0,0-.17-1.14-.94-1.96-1.19-1.26-2.61-.84-3.21-.57.4.11,1.05.32,1.49.54,1.29.66,1.72,1.32,1.72,1.32,0,0-.53-.55-1.81-1.19-.44-.22-1.07-.45-1.45-.6.08.65.33,2.25,2.2,2.53Z"/>
      <path class="cls-1" d="M87.03,47.66c1.21-.05,1.99.28,1.99.28,0,0-.28,1.11-1.14,1.85-1.31,1.13-2.68.58-3.25.24.41-.07,1.08-.21,1.53-.39,1.35-.53,1.84-1.14,1.84-1.14,0,0-.58.49-1.92,1-.46.17-1.11.34-1.5.45.14-.64.55-2.21,2.44-2.29Z"/>
      <path class="cls-1" d="M92.61,44.24c-.42-1.14-1.03-1.72-1.03-1.72,0,0-.91.7-1.26,1.77-.53,1.65.52,2.69,1.05,3.08-.09-.41-.23-1.07-.24-1.56-.04-1.44.33-2.14.33-2.14,0,0-.23.73-.17,2.16.02.49.12,1.15.17,1.56.53-.38,1.82-1.37,1.15-3.15Z"/>
      <path class="cls-1" d="M58.81,81.92c-.59.61-.77,1.17-.77,1.17,0,0,.72.36,1.5.25,1.2-.17,1.53-1.15,1.62-1.6-.23.18-.6.47-.91.63-.89.47-1.45.45-1.45.45,0,0,.53-.08,1.41-.55.3-.16.69-.43.93-.58-.4-.22-1.42-.72-2.33.23Z"/>
      <path class="cls-1" d="M67.21,76.18c-.84-.55-1.53-.64-1.53-.64,0,0-.27.91.03,1.79.45,1.36,1.66,1.54,2.2,1.54-.26-.23-.68-.6-.93-.92-.73-.94-.83-1.59-.83-1.59,0,0,.2.59.94,1.52.25.32.64.71.87.95.17-.51.54-1.8-.77-2.65Z"/>
      <path class="cls-1" d="M96.83,44.08c.43-1.19.34-2.06.34-2.06,0,0-1.2-.06-2.2.55-1.54.95-1.41,2.49-1.25,3.16.2-.39.54-1.01.86-1.41.94-1.18,1.71-1.48,1.71-1.48,0,0-.67.42-1.6,1.61-.32.4-.68,1-.92,1.35.68.06,2.37.14,3.05-1.72Z"/>
      <path class="cls-1" d="M87.82,39.34c-.07-1.04-.43-1.66-.43-1.66,0,0-.92.35-1.46,1.15-.84,1.22-.22,2.34.12,2.79.02-.36.07-.94.18-1.34.31-1.2.79-1.68.79-1.68,0,0-.36.54-.66,1.74-.1.41-.18.98-.24,1.32.53-.18,1.82-.69,1.71-2.31Z"/>
      <path class="cls-1" d="M73.79,63.59c-.94-.64-1.32-1.32-1.32-1.32,0,0,.84-.67,1.89-.74,1.61-.11,2.32,1.08,2.56,1.65-.35-.18-.92-.45-1.36-.58-1.3-.37-2.02-.19-2.02-.19,0,0,.71-.04,2,.34.44.13,1.02.37,1.37.51-.46.39-1.66,1.33-3.11.33Z"/>
      <path class="cls-1" d="M92.35,38.91c.49-1.03.48-1.81.48-1.81,0,0-1.06-.16-2.01.31-1.45.71-1.47,2.1-1.38,2.71.21-.33.57-.85.89-1.18.94-.97,1.65-1.17,1.65-1.17,0,0-.63.32-1.56,1.29-.32.33-.69.83-.94,1.13.6.11,2.1.33,2.86-1.27Z"/>
      <path class="cls-1" d="M95.14,51.41c1.44.37,2.45.17,2.45.17,0,0-.06-1.41-.89-2.51-1.28-1.69-3.07-1.37-3.83-1.11.48.19,1.24.53,1.74.86,1.48.97,1.92,1.84,1.92,1.84,0,0-.57-.74-2.05-1.69-.51-.32-1.24-.69-1.68-.93,0,.8.1,2.79,2.35,3.37Z"/>
      <path class="cls-1" d="M51.26,65.75c-.93-.78-1.75-.99-1.75-.99,0,0-.45,1.06-.22,2.16.35,1.7,1.78,2.08,2.43,2.16-.28-.31-.73-.82-.98-1.24-.75-1.23-.77-2.03-.77-2.03,0,0,.16.74.92,1.96.26.42.67.94.92,1.27.27-.59.9-2.09-.55-3.31Z"/>
      <path class="cls-1" d="M55.48,67.58c-.11-1.21-.54-1.93-.54-1.93,0,0-1.07.43-1.68,1.37-.95,1.45-.21,2.73.2,3.25.02-.42.06-1.1.18-1.57.34-1.4.89-1.98.89-1.98,0,0-.41.64-.73,2.04-.11.48-.19,1.14-.25,1.55.61-.23,2.11-.84,1.95-2.73Z"/>
      <path class="cls-1" d="M41.1,79.69c-1.44.06-2.35-.33-2.35-.33,0,0,.34-1.32,1.35-2.19,1.55-1.34,3.17-.68,3.84-.28-.49.09-1.28.25-1.82.46-1.59.62-2.18,1.35-2.18,1.35,0,0,.69-.58,2.28-1.18.54-.2,1.31-.4,1.77-.54-.17.75-.66,2.61-2.89,2.71Z"/>
      <g>
        <path class="cls-1" d="M60.29,49.99c-1.13-.45-1.97-.38-1.97-.38,0,0-.09,1.15.47,2.12.87,1.5,2.35,1.42,2.99,1.28-.37-.2-.95-.55-1.32-.86-1.1-.93-1.37-1.68-1.37-1.68,0,0,.39.65,1.5,1.57.38.31.94.68,1.27.92.07-.65.2-2.27-1.57-2.96Z"/>
        <path class="cls-1" d="M73.93,55.63c-.27-1.19-.79-1.84-.79-1.84,0,0-1,.57-1.49,1.58-.75,1.56.15,2.74.62,3.19-.04-.42-.08-1.09-.03-1.58.15-1.44.62-2.08.62-2.08,0,0-.32.69-.46,2.12-.05.49-.04,1.16-.04,1.57.58-.31,1.98-1.11,1.57-2.96Z"/>
        <path class="cls-1" d="M79.63,46.09c.39-1.15.28-1.98.28-1.98,0,0-1.15-.03-2.09.58-1.45.94-1.29,2.42-1.13,3.05.18-.38.5-.98.8-1.37.88-1.15,1.61-1.46,1.61-1.46,0,0-.63.42-1.49,1.57-.29.39-.63.97-.85,1.32.65.04,2.27.08,2.88-1.72Z"/>
        <path class="cls-1" d="M71.9,49.75c-.56-.85-.66-1.54-.66-1.54,0,0,.92-.28,1.82.02,1.38.45,1.57,1.68,1.57,2.23-.23-.26-.61-.68-.94-.93-.96-.74-1.61-.83-1.61-.83,0,0,.6.2,1.55.95.32.25.72.65.97.88-.52.17-1.82.55-2.7-.77Z"/>
        <path class="cls-1" d="M64.65,50.03c-.59-1.06-1.27-1.55-1.27-1.55,0,0-.8.82-.99,1.93-.29,1.71.91,2.59,1.49,2.9-.15-.39-.38-1.03-.47-1.51-.25-1.42.02-2.17.02-2.17,0,0-.12.75.15,2.16.09.48.29,1.12.39,1.52.47-.45,1.6-1.62.68-3.28Z"/>
        <path class="cls-1" d="M70.23,51.53c-.59-1.06-1.27-1.55-1.27-1.55,0,0-.8.82-.99,1.93-.29,1.71.91,2.59,1.49,2.9-.15-.39-.38-1.03-.47-1.51-.25-1.42.02-2.17.02-2.17,0,0-.12.75.15,2.16.09.48.29,1.12.39,1.52.47-.45,1.6-1.62.68-3.28Z"/>
        <path class="cls-1" d="M78.45,42.24c.04-1.21-.3-1.98-.3-1.98,0,0-1.11.3-1.84,1.16-1.12,1.32-.54,2.69-.2,3.25.07-.41.19-1.08.37-1.54.51-1.35,1.12-1.86,1.12-1.86,0,0-.48.59-.97,1.94-.17.46-.33,1.11-.43,1.5.63-.15,2.2-.58,2.26-2.47Z"/>
        <path class="cls-1" d="M71.88,45.43c-.54-1.44-.45-2.49-.45-2.49,0,0,1.45-.09,2.67.64,1.88,1.13,1.74,3,1.56,3.81-.25-.47-.67-1.21-1.07-1.69-1.16-1.41-2.1-1.77-2.1-1.77,0,0,.82.5,1.96,1.92.39.48.84,1.2,1.13,1.62-.82.08-2.87.2-3.71-2.04Z"/>
        <path class="cls-1" d="M66.67,60.3c-1.38-.39-2.13-1.05-2.13-1.05,0,0,.73-1.15,1.96-1.66,1.89-.79,3.23.35,3.74.93-.49-.07-1.29-.16-1.87-.13-1.71.09-2.49.6-2.49.6,0,0,.83-.34,2.53-.41.58-.03,1.37.03,1.85.04-.4.66-1.44,2.28-3.6,1.67Z"/>
        <path class="cls-1" d="M60.33,57.3c-1.44-.02-2.33-.47-2.33-.47,0,0,.41-1.3,1.47-2.11,1.62-1.25,3.21-.49,3.85-.06-.49.06-1.29.17-1.84.35-1.63.53-2.26,1.22-2.26,1.22,0,0,.72-.54,2.34-1.05.55-.17,1.33-.32,1.8-.43-.21.74-.81,2.57-3.05,2.54Z"/>
      </g>
      <path class="cls-1" d="M35.38,91.2c-1.19.32-2.03.16-2.03.16,0,0,.04-1.17.72-2.09,1.05-1.41,2.53-1.16,3.17-.96-.39.16-1.02.45-1.44.72-1.22.82-1.58,1.54-1.58,1.54,0,0,.47-.62,1.69-1.42.42-.27,1.02-.58,1.39-.78,0,.66-.06,2.31-1.92,2.82Z"/>
      <path class="cls-1" d="M49.53,87.1c-.4,1.15-.99,1.74-.99,1.74,0,0-.93-.68-1.3-1.74-.57-1.63.46-2.7.98-3.11-.08.41-.2,1.08-.21,1.57,0,1.44.38,2.13.38,2.13,0,0-.24-.72-.22-2.16,0-.49.09-1.16.13-1.56.54.37,1.85,1.33,1.23,3.12Z"/>
      <path class="cls-1" d="M46.86,92.72c-.65.78-.82,1.46-.82,1.46,0,0,.89.38,1.81.19,1.42-.29,1.74-1.49,1.81-2.04-.26.24-.69.61-1.04.82-1.03.63-1.7.64-1.7.64,0,0,.62-.14,1.64-.77.35-.22.79-.56,1.06-.77-.49-.23-1.75-.75-2.77.46Z"/>
      <path class="cls-1" d="M39.69,91.63c-.7.99-1.44,1.4-1.44,1.4,0,0-.71-.91-.77-2.03-.09-1.73,1.19-2.47,1.8-2.71-.2.37-.5.98-.63,1.45-.41,1.39-.23,2.16-.23,2.16,0,0-.03-.76.39-2.13.14-.47.41-1.08.56-1.46.41.5,1.41,1.79.31,3.34Z"/>
      <path class="cls-1" d="M45.4,90.77c-.7.99-1.44,1.4-1.44,1.4,0,0-.71-.91-.77-2.03-.09-1.73,1.19-2.47,1.8-2.71-.2.37-.5.98-.63,1.45-.41,1.39-.23,2.16-.23,2.16,0,0-.03-.76.39-2.13.14-.47.41-1.08.56-1.46.41.5,1.41,1.79.31,3.34Z"/>
      <path class="cls-1" d="M42.84,81.65c-1.42.23-2.23.8-2.23.8,0,0,.6,1.22,1.76,1.87,1.79,1,3.24.02,3.82-.51-.5.02-1.3.02-1.87-.08-1.69-.28-2.41-.88-2.41-.88,0,0,.79.43,2.47.69.57.09,1.37.12,1.85.16-.32-.7-1.17-2.42-3.39-2.06Z"/>
      <path class="cls-1" d="M36.25,83.82c-1.46-.14-2.4.21-2.4.21,0,0,.27,1.36,1.25,2.3,1.5,1.45,3.18.86,3.89.49-.49-.11-1.28-.32-1.82-.56-1.58-.72-2.14-1.49-2.14-1.49,0,0,.67.63,2.25,1.32.54.24,1.31.48,1.77.64-.13-.77-.52-2.69-2.79-2.91Z"/>
      <path class="cls-1" d="M54.62,81.91c-.09.15-.18.29-.28.43-.08.12-.17.23-.26.34-.63.69-1.21,1.37-1.57,1.93-.3.47-.29.63-.3,1.07,0,.14,0,.28.01.43,0,.43.06.88.22,1.32.02.16.04.32.05.49,0,.07,0,.14,0,.21,0,.07,0,.14-.01.21,0,.07-.02.13-.02.2,0,.07-.02.13-.03.2-.05.26-.13.5-.22.73-.04.11-.09.22-.14.33-.05.1-.1.21-.15.31-.2.4-.41.76-.6,1.09-.1.17-.18.33-.27.49-.08.16-.15.31-.21.46-.12.31-.2.6-.25.88-.04.28-.06.54-.04.77.04.47.2.81.35,1.01.07.1.14.17.19.22.05.05.07.07.07.07,0,0-.03-.02-.08-.06-.05-.04-.13-.1-.22-.19-.09-.09-.19-.22-.29-.39-.09-.17-.18-.38-.23-.62-.11-.49-.1-1.12.08-1.82.05-.17.1-.35.17-.53.07-.18.14-.36.22-.54.15-.36.33-.74.48-1.13.04-.1.07-.2.11-.3.03-.1.07-.2.09-.3.06-.2.1-.41.12-.62,0-.05.01-.1.01-.16,0-.05,0-.1,0-.16,0-.05,0-.1,0-.16,0-.05,0-.1-.01-.16-.02-.21-.08-.43-.14-.67-.06-.24-.14-.49-.2-.76-.06-.27-.12-.58-.12-.91,0-.16.01-.33.04-.49.01-.08.03-.16.05-.24.02-.08.04-.16.07-.24.1-.31.24-.61.4-.88.06-.1.12-.2.19-.3-.17.07-.35.13-.54.17-.15.04-.31.06-.46.08-.15.02-.3.03-.45.04-.3.02-.58.02-.86.02-.55,0-1.08.02-1.54.16-.11.03-.22.08-.33.13-.1.05-.2.11-.29.18-.18.13-.33.3-.48.5-.15.19-.28.4-.45.61-.04.05-.09.1-.13.15-.04.05-.09.1-.13.14-.05.04-.1.09-.14.13-.05.04-.09.09-.15.12-.4.32-.84.54-1.29.67-.44.13-.89.19-1.31.17-.42-.02-.82-.1-1.17-.24-.09-.03-.17-.07-.26-.11-.04-.02-.08-.04-.12-.06-.04-.02-.08-.04-.11-.06-.15-.08-.29-.16-.42-.19-.14-.03-.27-.02-.39.04-.13.05-.24.13-.35.21-.22.16-.39.33-.54.5-.29.34-.45.65-.55.87-.02.05-.04.1-.06.15-.02.04-.03.08-.04.11-.02.05-.03.08-.03.09,0,0,0-.04.02-.09,0-.03.02-.07.03-.11.01-.04.03-.09.05-.15.08-.23.22-.56.49-.93.14-.18.31-.38.52-.56.11-.09.22-.18.37-.26.07-.04.15-.07.24-.08.09-.02.18-.01.27,0,.18.03.34.11.5.18.04.02.08.04.11.06.04.02.08.03.12.05.08.03.16.07.24.09.33.11.7.17,1.08.16.39,0,.79-.07,1.18-.21.39-.14.78-.35,1.11-.64.04-.03.08-.08.12-.11.04-.04.08-.08.12-.12.04-.04.07-.09.11-.13.04-.04.07-.08.11-.13.14-.19.27-.4.42-.61.08-.11.16-.22.25-.32.09-.11.2-.21.31-.3.12-.09.24-.17.37-.24.13-.07.27-.13.41-.17.14-.05.28-.08.43-.11.14-.03.29-.05.43-.07.29-.03.57-.04.85-.05.56-.02,1.12-.03,1.63-.16.51-.13.97-.41,1.4-.78.25-.21.49-.46.72-.71.06-.09.11-.18.16-.27.06-.12.12-.24.17-.36.18-.43.3-.91.35-1.41.38.36.77.71,1.17,1.05-.08.3-.19.6-.32.89-.07.16-.16.32-.24.47Z"/>
      <path class="cls-1" d="M87.01,84.92l-.21-.22c-.08-.08-.15-.17-.22-.25-.07-.09-.15-.17-.22-.26-.14-.17-.28-.34-.41-.52-.06-.09-.13-.18-.2-.26l-.18-.27-.09-.13-.08-.14-.17-.27c-.05-.09-.1-.19-.15-.28-.05-.09-.11-.18-.15-.28-.09-.19-.19-.38-.26-.57l-.12-.29-.1-.3-.05-.15s-.03-.1-.04-.15l-.08-.3c-.03-.1-.05-.2-.07-.31l-.03-.15c-.01-.05-.02-.1-.03-.16l-.05-.31-.04-.32-.02-.16c0-.05,0-.11-.01-.16l-.03-.32c-.02-.43-.04-.87-.03-1.31,0-.88.08-1.78.15-2.68.08-.91.17-1.83.23-2.76.06-.93.08-1.88.02-2.84-.01-.12-.02-.24-.03-.36l-.02-.18c0-.06-.01-.12-.02-.18-.02-.12-.03-.24-.05-.36-.02-.12-.04-.24-.06-.36l-.03-.18c-.01-.06-.03-.12-.04-.18-.03-.12-.06-.24-.08-.36-.03-.12-.07-.24-.1-.36l-.05-.18c-.02-.06-.04-.12-.06-.18-.04-.12-.08-.23-.13-.35-.04-.12-.1-.23-.14-.35-.09-.23-.21-.45-.33-.67-.01-.03-.03-.06-.04-.08l-.05-.08-.1-.16-.1-.16c-.03-.05-.06-.11-.1-.16-.07-.1-.14-.2-.21-.3-.04-.05-.07-.1-.11-.15l-.05-.07s-.03-.08-.05-.12c-.07-.17-.12-.36-.16-.54-.04-.19-.07-.38-.08-.58-.07-.8.05-1.65.25-2.48.1-.41.22-.83.36-1.23.03-.1.07-.21.11-.31.04-.1.08-.21.11-.31.08-.21.15-.42.23-.63.15-.42.31-.84.45-1.27.04-.11.07-.21.1-.32.03-.11.07-.22.1-.32.06-.22.13-.44.18-.66.14-.54.23-1.09.27-1.65.04-.1.02-1.01-.02-1.32,0-.03,0-.07-.01-.1,0-.06,0-.11-.02-.17-.01-.06-.02-.11-.03-.17-.02-.11-.04-.22-.06-.33-.03-.11-.05-.22-.08-.32-.12-.41-.25-.76-.33-1.09-.47-1.9.19-2.71.77-3.41,1.45-1.77,1.42-4.04,1.42-4.04,0,0-.52,1.3-.54,1.36-.09.23-.21.46-.35.69-.28.46-.67.91-1.08,1.41-.21.25-.43.51-.64.79-.21.29-.42.6-.61.96-.18.36-.33.77-.39,1.21v.08s-.02.08-.02.08c0,.06-.01.11-.01.17,0,.06,0,.11,0,.17v.17c.02.22.05.44.08.65.08.42.18.8.25,1.15.02.09.03.17.05.26.01.09.02.17.03.26v.13s.02.09.02.13c0,.09,0,.17,0,.26,0,.7-.14,1.44-.38,2.2-.05.19-.13.38-.19.57-.04.1-.07.19-.11.29-.04.1-.07.19-.11.29-.01.04-.03.07-.04.11-.07.17-.27.65-.33.8-.04.1-.08.2-.12.29-.09.21-.17.41-.26.62-.04.11-.09.21-.13.32-.04.11-.09.21-.13.33-.18.45-.33.92-.46,1.4-.13.48-.24.98-.31,1.5-.02.17-.04.34-.05.51-.12,1.06-.03,2.15.47,3.19l.07.1c.18.37.42.73.69,1.05,0,0,0,0,0,.01.08.17.17.34.24.52.03.09.07.17.11.26l.09.27s.03.09.04.14l.04.14c.02.09.05.19.07.28l.06.29s.02.1.03.14l.02.15c.01.1.03.2.05.3l.03.3s.01.1.02.15v.15c.02.1.02.2.03.31.04.83,0,1.68-.07,2.56-.07.88-.18,1.78-.27,2.7-.1.92-.19,1.87-.21,2.85-.02.49,0,.99.01,1.49,0,.13.02.25.03.38,0,.06,0,.13.01.19l.02.19c.01.13.03.26.04.38.02.11.03.21.05.32-.43-.22-.88-.41-1.34-.56-.8-.26-1.6-.41-2.39-.48-.79-.07-1.56-.06-2.31-.03-.22.01-.45.03-.67.04l-.09-.02c-.05-.01-.1-.03-.15-.05-.1-.03-.2-.07-.3-.1-.1-.04-.2-.08-.29-.12-.1-.04-.2-.08-.29-.12-.09-.05-.19-.09-.28-.13-.05-.02-.09-.05-.14-.07l-.14-.08-.14-.08s-.09-.05-.13-.08c-.09-.06-.18-.11-.26-.17-.09-.05-.17-.12-.26-.18-.08-.06-.17-.12-.25-.18-.08-.07-.16-.13-.24-.2l-.12-.1s-.08-.07-.11-.1c-.07-.07-.15-.14-.22-.21-.07-.07-.14-.15-.21-.22l-.1-.11-.05-.05s-.03-.04-.05-.06c-.06-.08-.13-.15-.19-.23-.03-.04-.07-.07-.1-.12l-.09-.12c-.06-.08-.12-.16-.18-.24-.05-.08-.11-.17-.16-.25-.05-.08-.11-.16-.15-.25-.3-.51-.53-1.09-.77-1.67-.05-.33-.08-.66-.08-.99,0-.21.02-.41.04-.61.03-.21.06-.41.09-.63.03-.21.05-.43.06-.65,0-.22,0-.45-.06-.68-.05-.23-.15-.45-.29-.64-.07-.1-.15-.18-.23-.25-.08-.07-.16-.14-.25-.2-.16-.12-.32-.22-.45-.32-.07-.05-.13-.1-.18-.16-.03-.03-.05-.05-.08-.09-.02-.03-.05-.06-.07-.09-.08-.13-.15-.27-.2-.41-.04-.15-.07-.3-.09-.46-.04-.31-.04-.63-.05-.94-.01-.31-.03-.61-.09-.89-.06-.28-.15-.54-.26-.76-.22-.45-.51-.77-.78-1-.26-.23-.5-.36-.66-.44-.08-.04-.14-.06-.19-.08-.04-.02-.06-.02-.06-.03,0,0,.02.01.06.03.04.02.1.05.18.1.15.09.37.25.6.49.23.24.48.57.65,1.01.09.22.15.46.19.72.03.26.03.54.02.84,0,.3-.03.62-.01.97,0,.17.03.36.07.54.05.18.12.37.22.55.03.04.06.09.09.13.03.04.06.08.1.12.07.08.14.15.22.21.15.13.31.24.45.35.14.11.26.23.35.36.09.13.15.28.18.44.06.33.02.72-.05,1.12-.03.2-.07.41-.11.63,0,.05-.01.11-.02.16-.03-.05-.05-.1-.08-.15-.21-.37-.46-.73-.76-1.05l-.05-.06s-.04-.04-.06-.06l-.12-.11c-.08-.08-.16-.14-.25-.21-.17-.13-.35-.25-.53-.35-.36-.21-.73-.36-1.09-.49-.72-.25-1.41-.4-2.03-.58-.63-.18-1.2-.39-1.68-.69-.24-.15-.45-.32-.64-.51-.19-.19-.35-.4-.5-.62-.29-.44-.51-.9-.72-1.34-.2-.44-.39-.86-.59-1.24-.2-.38-.41-.71-.62-.98-.43-.56-.88-.89-1.21-1.05-.08-.04-.16-.07-.22-.1-.03-.01-.06-.03-.09-.03-.03,0-.05-.02-.08-.02-.09-.03-.13-.04-.13-.04,0,0,.04.02.13.06.02,0,.05.02.07.03.03.01.05.03.08.04.06.03.13.07.21.12.3.19.7.55,1.06,1.12.18.28.35.62.51,1,.16.38.31.81.47,1.27.17.46.36.96.64,1.47.14.25.31.51.52.75.2.24.45.47.71.66.54.39,1.17.67,1.82.9.65.23,1.32.42,1.95.68.63.26,1.22.6,1.65,1.11.44.51.74,1.17,1.02,1.91.14.37.28.76.43,1.16.08.2.16.4.25.61.09.21.2.41.3.61.05.1.11.2.17.3.06.1.12.2.18.3l.2.29.1.14s.07.09.11.14c.07.09.15.18.22.27.02.02.04.05.06.07l.06.07.12.13c.08.09.16.18.24.26.08.08.17.17.26.25.04.04.08.08.13.12l.14.12c.09.08.18.16.27.23.09.07.19.15.29.22.1.07.19.15.29.21.09.06.18.12.27.18-.98.11-1.93.19-2.84.2-1.27.02-2.48-.15-3.54-.58-.26-.1-.54-.24-.85-.37-.31-.13-.66-.27-1.05-.35-.2-.04-.41-.06-.62-.05-.21,0-.42.04-.62.09-.39.11-.71.27-.99.43-.28.16-.53.32-.76.44-.12.06-.23.13-.36.18-.06.03-.12.06-.18.08-.06.03-.12.05-.18.08-.49.2-.99.34-1.5.43-.23.04-.46.07-.69.08-.18-.12-.34-.27-.48-.44-.12-.15-.23-.32-.32-.5-.09-.18-.17-.36-.23-.55-.12-.37-.19-.77-.24-1.17-.05-.4-.07-.8-.11-1.2-.02-.2-.04-.4-.07-.59-.03-.2-.06-.39-.11-.58-.09-.38-.21-.74-.36-1.08-.3-.67-.68-1.23-1.09-1.69-.41-.46-.85-.8-1.26-1.07-.2-.13-.4-.24-.58-.34-.18-.1-.34-.19-.47-.28-.28-.18-.47-.35-.58-.49-.03-.03-.05-.06-.07-.09-.02-.03-.04-.05-.05-.07-.02-.03-.04-.05-.04-.05,0,0,.01.02.03.06.01.02.02.05.04.07.02.03.04.06.06.1.1.14.28.34.55.55.13.11.29.22.45.33.17.12.35.24.54.38.37.28.76.65,1.12,1.11.36.46.68,1.01.92,1.65.12.32.21.65.28,1.01.03.18.06.36.08.54.02.19.03.38.04.57.02.39.04.8.07,1.22.02.21.04.43.08.65.04.22.09.44.15.66.07.22.16.44.26.65.11.21.23.42.39.62,0,0,.01.01.02.02-.43-.03-.86-.09-1.26-.19-.92-.21-1.77-.66-2.65-1.01-.44-.17-.89-.32-1.35-.41-.23-.04-.46-.07-.69-.07-.23,0-.45,0-.66.02-.42.04-.82.11-1.19.19-.37.08-.72.15-1.06.22-.34.06-.65.11-.96.13-.3.02-.59.01-.86-.03-.53-.09-.97-.33-1.28-.62-.31-.29-.52-.6-.68-.85-.16-.25-.27-.45-.34-.59-.07-.13-.11-.2-.11-.2,0,0,.03.08.09.21.06.14.15.35.29.62.14.27.32.6.63.94.04.04.08.08.12.12.04.04.09.08.13.12.05.04.1.08.15.12.05.04.11.07.16.11.23.14.49.25.78.33.29.08.61.11.93.11.33,0,.67-.02,1.02-.06.35-.04.71-.09,1.08-.14.37-.05.75-.08,1.13-.09.19,0,.39,0,.58.03.19.02.38.06.58.1.39.1.78.26,1.18.45.4.19.81.41,1.26.63.22.11.45.22.69.32.06.02.12.05.18.08.06.02.13.05.19.07.06.02.13.05.19.07.06.02.13.04.19.06,1.04.32,2.2.45,3.39.31.58-.07,1.17-.19,1.75-.39l1.99-.77c.17-.1.38-.16.64-.2.14-.02.3-.04.46-.04.19.05.39.14.62.25.26.13.55.29.87.43.64.29,1.33.5,2.02.64.09.02.18.03.26.05.09.01.18.03.26.04.18.03.35.04.53.07.18.01.35.03.53.04.09,0,.18,0,.27.01h.13s.13,0,.13,0c1.42.04,2.83-.1,4.22-.21.7-.05,1.39-.11,2.08-.12.54-.01,1.08,0,1.61.03,0,0,0,0-.01,0,.12,0,.25.01.37.04.08,0,.17.01.25.02.24.03.48.07.71.12.18.03.37.07.55.13.07.01.13.03.2.05,0,0,0,0,.01,0,.1.03.2.06.3.09.62.21,1.22.52,1.78.89l.05.03.05.04.1.07c.07.05.14.1.2.15l.2.16s.07.05.1.08l.09.08.19.17.18.18s.05.05.07.07c.03.06.07.13.1.19.06.12.12.24.19.35l.2.34.1.17.11.17.22.33c.07.11.15.21.23.32.15.22.31.42.47.62.08.1.16.2.25.3.08.1.17.2.25.3l.1.11h1.95c0-.46,0-1.06,0-1.53Z"/>
      <path class="cls-1" d="M92.07,48.1s-.1.01-.18.03c-.15.04-.39.12-.62.34-.11.11-.22.25-.32.41-.1.16-.2.33-.32.5-.24.35-.53.75-.87,1.15-.17.19-.37.38-.59.5-.22.12-.49.16-.8.16-.15,0-.31,0-.47-.01-.08,0-.17,0-.26,0-.09,0-.18,0-.27,0-.18,0-.36.03-.55.06-.09.02-.18.04-.27.06-.05.01-.09.02-.14.03-.05.01-.09.03-.14.04-.37.1-.72.26-1.07.46-.04.03-.09.05-.13.08-.04.03-.09.05-.13.08-.08.06-.17.12-.25.17-.08.06-.16.13-.24.19-.04.03-.08.06-.12.1l-.11.11s-.02.02-.03.03c-.03.38-.06,1.09-.04,1.07.06-.08.11-.15.16-.22.12-.14.23-.28.37-.41l.1-.1s.07-.06.1-.09c.07-.06.13-.12.21-.17.07-.05.14-.11.21-.16.03-.03.07-.05.11-.07.04-.02.07-.05.11-.07.3-.18.61-.34.93-.45.04-.01.08-.03.12-.04.04-.01.08-.02.12-.03.08-.02.16-.04.24-.06.16-.03.32-.07.48-.08.08,0,.16-.02.24-.02.08,0,.16,0,.24,0,.16,0,.33,0,.5-.02.17-.01.34-.03.5-.08.17-.04.33-.11.47-.2.29-.18.49-.41.66-.64.33-.45.59-.87.79-1.25.1-.19.19-.37.27-.54s.16-.3.26-.41c.19-.22.41-.33.55-.38.07-.03.13-.04.17-.05.04,0,.06-.01.06-.01,0,0-.02,0-.06,0Z"/>
      <path class="cls-1" d="M76.48,57.9c-.07-.28-.06-.42-.05-.56,0-.21.05-.44.12-.67.06-.23.15-.48.22-.73.08-.25.15-.52.19-.79,0-.07.02-.14.02-.21,0-.07.01-.14.01-.21,0-.07,0-.14,0-.2,0-.07,0-.13-.01-.2-.02-.26-.07-.51-.13-.75-.03-.12-.07-.23-.1-.34-.04-.11-.07-.22-.11-.32-.16-.42-.33-.8-.48-1.15-.08-.18-.14-.35-.21-.52-.06-.16-.11-.32-.16-.48-.08-.32-.13-.62-.15-.91-.01-.28,0-.54.05-.77.09-.46.29-.78.46-.96.08-.09.16-.16.21-.2.05-.04.08-.06.08-.06,0,0-.03.02-.09.05-.06.03-.14.08-.24.17-.1.08-.22.2-.33.35-.11.16-.22.36-.3.59-.16.48-.23,1.11-.13,1.82.03.18.06.36.11.55.05.18.1.37.16.56.11.38.24.77.35,1.17.03.1.05.2.08.31.02.1.04.21.06.31.04.21.05.42.05.63,0,.05,0,.1,0,.16,0,.05,0,.1-.01.16,0,.05-.02.1-.02.15,0,.05-.02.1-.03.15-.05.21-.12.42-.21.65-.09.23-.19.47-.29.74-.09.27-.18.56-.22.89-.02.16-.02.33-.01.49,0,.08.01.16.02.25.01.08.02.16.04.24.06.32.17.63.3.92.05.11.1.22.15.32-.17-.09-.34-.17-.51-.23-.15-.05-.3-.1-.45-.13-.15-.04-.3-.07-.44-.09-.29-.05-.58-.08-.85-.12-.55-.07-1.07-.14-1.52-.33-.11-.05-.21-.1-.31-.16-.1-.06-.19-.13-.27-.21-.16-.15-.3-.34-.42-.55-.12-.21-.24-.43-.38-.65-.03-.06-.07-.11-.11-.16-.04-.05-.08-.11-.12-.16-.04-.05-.09-.1-.13-.15-.04-.05-.08-.1-.13-.14-.36-.36-.78-.63-1.2-.81-.43-.18-.87-.28-1.29-.31-.42-.03-.83.01-1.19.11-.09.02-.18.05-.27.08-.04.02-.09.03-.13.05-.04.02-.08.03-.12.05-.16.07-.3.13-.44.14-.14.02-.27-.01-.39-.08-.12-.07-.23-.16-.32-.25-.2-.18-.35-.38-.48-.56-.25-.37-.38-.7-.45-.92-.02-.06-.03-.11-.04-.15-.01-.04-.02-.08-.03-.11-.01-.05-.02-.08-.02-.09,0,0,0,.04.01.09,0,.03,0,.07.02.11,0,.04.02.1.03.15.05.23.15.58.38.97.12.2.26.41.46.61.1.1.2.21.34.3.07.04.15.08.23.11.09.03.18.03.27.03.18-.01.35-.07.51-.13.04-.01.08-.03.12-.04.04-.01.08-.02.12-.03.08-.02.16-.05.25-.06.34-.07.71-.09,1.1-.04.38.05.77.16,1.15.34.37.18.73.44,1.03.76.04.04.07.08.11.13.03.04.07.09.11.13.03.05.06.09.09.14.03.05.06.09.09.14.12.2.22.42.35.66.06.12.13.23.21.35.08.12.18.23.28.34.11.1.22.2.34.28.12.08.25.16.39.22.13.06.27.11.41.16.14.04.28.08.42.11.28.06.56.11.84.15.55.08,1.11.16,1.6.34.49.18.92.51,1.31.93.22.24.43.51.63.79.05.1.09.19.13.29.05.12.09.25.13.38.15.51.21,1.08.19,1.66-.01.37-.06.76-.12,1.14.37-.64,1.04-1.07,1.47-1.6-.03-.54-.12-1.08-.29-1.6-.05-.17-.12-.33-.19-.49-.07-.16-.15-.31-.23-.46-.16-.29-.33-.56-.5-.81-.15-.22-.29-.43-.42-.63-.16-.34-.42-.75-.61-1.12"/>
      <path class="cls-1" d="M82.5,71.01s-5.55-.82-5.09-5.96c.46-5.14,1.47-2.14,1.47-1.6,0,1.91,0,5.53,3.42,5.37,4.18-.2.2,2.2.2,2.2Z"/>
      <path class="cls-1" d="M34.43,95.29c-.1.91.12,1.51.12,1.51,0,0,.85-.16,1.45-.77.92-.93.56-1.99.33-2.44-.07.31-.21.8-.36,1.14-.46.99-.95,1.34-.95,1.34,0,0,.4-.41.84-1.4.15-.34.31-.82.41-1.11-.49.08-1.69.31-1.84,1.74Z"/>
    </g>
  </g>
  <g>
    <path class="cls-1" d="M157.7,96.8c1.04.63,1.88.71,1.88.71,0,0,.28-1.12-.11-2.17-.61-1.62-2.08-1.79-2.74-1.76.33.26.85.7,1.16,1.07.93,1.1,1.07,1.88,1.07,1.88,0,0-.27-.71-1.21-1.8-.32-.37-.81-.83-1.1-1.12-.18.63-.57,2.2,1.05,3.18Z"/>
    <g>
      <path class="cls-1" d="M105.43,38.19c-.94-.41-1.65-.39-1.65-.39,0,0-.11.96.33,1.8.68,1.29,1.94,1.27,2.48,1.18-.3-.18-.78-.49-1.09-.77-.9-.82-1.1-1.46-1.1-1.46,0,0,.31.56,1.21,1.37.31.28.77.6,1.04.81.08-.54.24-1.91-1.23-2.55Z"/>
      <path class="cls-1" d="M156.61,71.52c1.05-1.38,2.12-1.92,2.12-1.92,0,0,.96,1.33.99,2.94.05,2.47-1.82,3.46-2.71,3.77.3-.52.76-1.37.98-2.03.66-1.95.43-3.06.43-3.06,0,0,0,1.08-.67,3.02-.23.66-.64,1.52-.87,2.06-.57-.74-1.91-2.62-.27-4.77Z"/>
      <path class="cls-1" d="M147.09,59.19c1.55-.06,2.54.36,2.54.36,0,0-.37,1.42-1.46,2.36-1.68,1.44-3.43.72-4.15.29.53-.09,1.38-.26,1.96-.49,1.72-.67,2.36-1.45,2.36-1.45,0,0-.74.63-2.47,1.27-.59.22-1.42.43-1.92.57.19-.81.72-2.82,3.14-2.92Z"/>
      <path class="cls-1" d="M143.82,63.45c1.06-.04,1.74.25,1.74.25,0,0-.25.97-1,1.62-1.15.99-2.35.5-2.84.2.36-.06.94-.18,1.34-.33,1.18-.46,1.62-.99,1.62-.99,0,0-.51.43-1.69.87-.4.15-.97.29-1.31.39.13-.56.49-1.93,2.15-2Z"/>
      <path class="cls-1" d="M147.49,72.71c1.06-.04,1.74.25,1.74.25,0,0-.25.97-1,1.62-1.15.99-2.35.5-2.84.2.36-.06.94-.18,1.34-.33,1.18-.46,1.62-.99,1.62-.99,0,0-.51.43-1.69.87-.4.15-.97.29-1.31.39.13-.56.49-1.93,2.15-2Z"/>
      <path class="cls-1" d="M137.71,61.17c1.06-.04,1.74.25,1.74.25,0,0-.25.97-1,1.62-1.15.99-2.35.5-2.84.2.36-.06.94-.18,1.34-.33,1.18-.46,1.62-.99,1.62-.99,0,0-.51.43-1.69.87-.4.15-.97.29-1.31.39.13-.56.49-1.93,2.15-2Z"/>
      <path class="cls-1" d="M129.26,66.46c-.14-1.21.14-2,.14-2,0,0,1.13.21,1.93,1,1.22,1.23.76,2.63.46,3.22-.1-.41-.28-1.06-.49-1.5-.62-1.31-1.27-1.76-1.27-1.76,0,0,.53.54,1.13,1.85.2.44.42,1.08.56,1.46-.64-.1-2.24-.4-2.46-2.28Z"/>
      <path class="cls-1" d="M137.76,65.23c.57-.71,1.13-.98,1.13-.98,0,0,.49.71.49,1.55,0,1.29-.99,1.79-1.46,1.95.16-.27.41-.71.54-1.05.37-1.02.26-1.6.26-1.6,0,0,0,.57-.38,1.58-.13.34-.35.79-.48,1.07-.29-.39-.97-1.4-.09-2.5Z"/>
      <path class="cls-1" d="M140.72,70.8c-.18-1.52.17-2.52.17-2.52,0,0,1.43.26,2.43,1.27,1.54,1.55.96,3.32.59,4.07-.13-.51-.36-1.34-.62-1.9-.78-1.65-1.6-2.22-1.6-2.22,0,0,.67.69,1.43,2.33.26.56.53,1.36.7,1.85-.81-.12-2.83-.5-3.1-2.87Z"/>
      <path class="cls-1" d="M150.44,75.31c-.18-1.52.17-2.52.17-2.52,0,0,1.43.26,2.43,1.27,1.54,1.55.96,3.32.59,4.07-.13-.51-.36-1.34-.62-1.9-.78-1.65-1.6-2.22-1.6-2.22,0,0,.67.69,1.43,2.33.26.56.53,1.36.7,1.85-.81-.12-2.83-.5-3.1-2.87Z"/>
      <path class="cls-1" d="M125.71,74.34c.82-1.14,1.68-1.61,1.68-1.61,0,0,.81,1.06.87,2.36.09,2.01-1.4,2.85-2.11,3.13.23-.43.58-1.13.75-1.67.49-1.6.28-2.5.28-2.5,0,0,.03.88-.47,2.47-.17.54-.49,1.25-.66,1.69-.48-.59-1.61-2.09-.33-3.87Z"/>
      <path class="cls-1" d="M120,50.24c1.04-.63,1.88-.7,1.88-.7,0,0,.28,1.12-.11,2.17-.61,1.62-2.08,1.78-2.74,1.76.33-.26.85-.7,1.16-1.07.93-1.1,1.07-1.88,1.07-1.88,0,0-.27.71-1.21,1.8-.32.37-.81.83-1.1,1.11-.18-.63-.57-2.2,1.05-3.18Z"/>
      <path class="cls-1" d="M116.37,40.42c.81-.91,1.58-1.23,1.58-1.23,0,0,.6.98.54,2.1-.1,1.73-1.46,2.32-2.09,2.49.24-.35.6-.92.79-1.37.56-1.33.46-2.12.46-2.12,0,0-.05.76-.62,2.08-.19.45-.53,1.03-.72,1.39-.36-.55-1.2-1.93.06-3.35Z"/>
      <path class="cls-1" d="M137.41,84.26c1.12.62,2,.66,2,.66,0,0,.25-1.18-.21-2.27-.71-1.68-2.26-1.79-2.95-1.73.36.26.92.7,1.27,1.08,1.03,1.12,1.21,1.93,1.21,1.93,0,0-.32-.73-1.35-1.84-.35-.38-.89-.84-1.2-1.13-.16.67-.51,2.34,1.24,3.3Z"/>
      <path class="cls-1" d="M109.98,54.66c-1.2.18-2-.08-2-.08,0,0,.17-1.14.94-1.96,1.19-1.26,2.61-.84,3.21-.57-.4.11-1.05.32-1.49.54-1.29.66-1.72,1.32-1.72,1.32,0,0,.53-.55,1.81-1.19.44-.22,1.07-.45,1.45-.6-.08.65-.33,2.25-2.2,2.53Z"/>
      <path class="cls-1" d="M113.91,47.66c-1.21-.05-1.99.28-1.99.28,0,0,.28,1.11,1.14,1.85,1.31,1.13,2.68.58,3.25.24-.41-.07-1.08-.21-1.53-.39-1.35-.53-1.84-1.14-1.84-1.14,0,0,.58.49,1.92,1,.46.17,1.11.34,1.5.45-.14-.64-.55-2.21-2.44-2.29Z"/>
      <path class="cls-1" d="M108.34,44.24c.42-1.14,1.03-1.72,1.03-1.72,0,0,.91.7,1.26,1.77.53,1.65-.52,2.69-1.05,3.08.09-.41.23-1.07.24-1.56.04-1.44-.33-2.14-.33-2.14,0,0,.23.73.17,2.16-.02.49-.12,1.15-.17,1.56-.53-.38-1.82-1.37-1.15-3.15Z"/>
      <path class="cls-1" d="M142.13,81.92c.59.61.77,1.17.77,1.17,0,0-.72.36-1.5.25-1.2-.17-1.53-1.15-1.62-1.6.23.18.6.47.91.63.89.47,1.45.45,1.45.45,0,0-.53-.08-1.41-.55-.3-.16-.69-.43-.93-.58.4-.22,1.42-.72,2.33.23Z"/>
      <path class="cls-1" d="M133.73,76.18c.84-.55,1.53-.64,1.53-.64,0,0,.27.91-.03,1.79-.45,1.36-1.66,1.54-2.2,1.54.26-.23.68-.6.93-.92.73-.94.83-1.59.83-1.59,0,0-.2.59-.94,1.52-.25.32-.64.71-.87.95-.17-.51-.54-1.8.77-2.65Z"/>
      <path class="cls-1" d="M104.12,44.08c-.43-1.19-.34-2.06-.34-2.06,0,0,1.2-.06,2.2.55,1.54.95,1.41,2.49,1.25,3.16-.2-.39-.54-1.01-.86-1.41-.94-1.18-1.71-1.48-1.71-1.48,0,0,.67.42,1.6,1.61.32.4.68,1,.92,1.35-.68.06-2.37.14-3.05-1.72Z"/>
      <path class="cls-1" d="M113.13,39.34c.07-1.04.43-1.66.43-1.66,0,0,.92.35,1.46,1.15.84,1.22.22,2.34-.12,2.79-.02-.36-.07-.94-.18-1.34-.31-1.2-.79-1.68-.79-1.68,0,0,.36.54.66,1.74.1.41.18.98.24,1.32-.53-.18-1.82-.69-1.71-2.31Z"/>
      <path class="cls-1" d="M127.16,63.59c.94-.64,1.32-1.32,1.32-1.32,0,0-.84-.67-1.89-.74-1.61-.11-2.32,1.08-2.56,1.65.35-.18.92-.45,1.36-.58,1.3-.37,2.02-.19,2.02-.19,0,0-.71-.04-2,.34-.44.13-1.02.37-1.37.51.46.39,1.66,1.33,3.11.33Z"/>
      <path class="cls-1" d="M108.59,38.91c-.49-1.03-.48-1.81-.48-1.81,0,0,1.06-.16,2.01.31,1.45.71,1.47,2.1,1.38,2.71-.21-.33-.57-.85-.89-1.18-.94-.97-1.65-1.17-1.65-1.17,0,0,.63.32,1.56,1.29.32.33.69.83.94,1.13-.6.11-2.1.33-2.86-1.27Z"/>
      <path class="cls-1" d="M105.81,51.41c-1.44.37-2.45.17-2.45.17,0,0,.06-1.41.89-2.51,1.28-1.69,3.07-1.37,3.83-1.11-.48.19-1.24.53-1.74.86-1.48.97-1.92,1.84-1.92,1.84,0,0,.57-.74,2.05-1.69.51-.32,1.24-.69,1.68-.93,0,.8-.1,2.79-2.35,3.37Z"/>
      <path class="cls-1" d="M149.68,65.75c.93-.78,1.75-.99,1.75-.99,0,0,.45,1.06.22,2.16-.35,1.7-1.78,2.08-2.43,2.16.28-.31.73-.82.98-1.24.75-1.23.77-2.03.77-2.03,0,0-.16.74-.92,1.96-.26.42-.67.94-.92,1.27-.27-.59-.9-2.09.55-3.31Z"/>
      <path class="cls-1" d="M145.46,67.58c.11-1.21.54-1.93.54-1.93,0,0,1.07.43,1.68,1.37.95,1.45.21,2.73-.2,3.25-.02-.42-.06-1.1-.18-1.57-.34-1.4-.89-1.98-.89-1.98,0,0,.41.64.73,2.04.11.48.19,1.14.25,1.55-.61-.23-2.11-.84-1.95-2.73Z"/>
      <path class="cls-1" d="M159.85,79.69c1.44.06,2.35-.33,2.35-.33,0,0-.34-1.32-1.35-2.19-1.55-1.34-3.17-.68-3.84-.28.49.09,1.28.25,1.82.46,1.59.62,2.18,1.35,2.18,1.35,0,0-.69-.58-2.28-1.18-.54-.2-1.31-.4-1.77-.54.17.75.66,2.61,2.89,2.71Z"/>
      <g>
        <path class="cls-1" d="M140.66,49.99c1.13-.45,1.97-.38,1.97-.38,0,0,.09,1.15-.47,2.12-.87,1.5-2.35,1.42-2.99,1.28.37-.2.95-.55,1.32-.86,1.1-.93,1.37-1.68,1.37-1.68,0,0-.39.65-1.5,1.57-.38.31-.94.68-1.27.92-.07-.65-.2-2.27,1.57-2.96Z"/>
        <path class="cls-1" d="M127.02,55.63c.27-1.19.79-1.84.79-1.84,0,0,1,.57,1.49,1.58.75,1.56-.15,2.74-.62,3.19.04-.42.08-1.09.03-1.58-.15-1.44-.62-2.08-.62-2.08,0,0,.32.69.46,2.12.05.49.04,1.16.04,1.57-.58-.31-1.98-1.11-1.57-2.96Z"/>
        <path class="cls-1" d="M121.31,46.09c-.39-1.15-.28-1.98-.28-1.98,0,0,1.15-.03,2.09.58,1.45.94,1.29,2.42,1.13,3.05-.18-.38-.5-.98-.8-1.37-.88-1.15-1.61-1.46-1.61-1.46,0,0,.63.42,1.49,1.57.29.39.63.97.85,1.32-.65.04-2.27.08-2.88-1.72Z"/>
        <path class="cls-1" d="M129.04,49.75c.56-.85.66-1.54.66-1.54,0,0-.92-.28-1.82.02-1.38.45-1.57,1.68-1.57,2.23.23-.26.61-.68.94-.93.96-.74,1.61-.83,1.61-.83,0,0-.6.2-1.55.95-.32.25-.72.65-.97.88.52.17,1.82.55,2.7-.77Z"/>
        <path class="cls-1" d="M136.29,50.03c.59-1.06,1.27-1.55,1.27-1.55,0,0,.8.82.99,1.93.29,1.71-.91,2.59-1.49,2.9.15-.39.38-1.03.47-1.51.25-1.42-.02-2.17-.02-2.17,0,0,.12.75-.15,2.16-.09.48-.29,1.12-.39,1.52-.47-.45-1.6-1.62-.68-3.28Z"/>
        <path class="cls-1" d="M130.71,51.53c.59-1.06,1.27-1.55,1.27-1.55,0,0,.8.82.99,1.93.29,1.71-.91,2.59-1.49,2.9.15-.39.38-1.03.47-1.51.25-1.42-.02-2.17-.02-2.17,0,0,.12.75-.15,2.16-.09.48-.29,1.12-.39,1.52-.47-.45-1.6-1.62-.68-3.28Z"/>
        <path class="cls-1" d="M122.49,42.24c-.04-1.21.3-1.98.3-1.98,0,0,1.11.3,1.84,1.16,1.12,1.32.54,2.69.2,3.25-.07-.41-.19-1.08-.37-1.54-.51-1.35-1.12-1.86-1.12-1.86,0,0,.48.59.97,1.94.17.46.33,1.11.43,1.5-.63-.15-2.2-.58-2.26-2.47Z"/>
        <path class="cls-1" d="M129.06,45.43c.54-1.44.45-2.49.45-2.49,0,0-1.45-.09-2.67.64-1.88,1.13-1.74,3-1.56,3.81.25-.47.67-1.21,1.07-1.69,1.16-1.41,2.1-1.77,2.1-1.77,0,0-.82.5-1.96,1.92-.39.48-.84,1.2-1.13,1.62.82.08,2.87.2,3.71-2.04Z"/>
        <path class="cls-1" d="M134.27,60.3c1.38-.39,2.13-1.05,2.13-1.05,0,0-.73-1.15-1.96-1.66-1.89-.79-3.23.35-3.74.93.49-.07,1.29-.16,1.87-.13,1.71.09,2.49.6,2.49.6,0,0-.83-.34-2.53-.41-.58-.03-1.37.03-1.85.04.4.66,1.44,2.28,3.6,1.67Z"/>
        <path class="cls-1" d="M140.62,57.3c1.44-.02,2.33-.47,2.33-.47,0,0-.41-1.3-1.47-2.11-1.62-1.25-3.21-.49-3.85-.06.49.06,1.29.17,1.84.35,1.63.53,2.26,1.22,2.26,1.22,0,0-.72-.54-2.34-1.05-.55-.17-1.33-.32-1.8-.43.21.74.81,2.57,3.05,2.54Z"/>
      </g>
      <path class="cls-1" d="M165.56,91.2c1.19.32,2.03.16,2.03.16,0,0-.04-1.17-.72-2.09-1.05-1.41-2.53-1.16-3.17-.96.39.16,1.02.45,1.44.72,1.22.82,1.58,1.54,1.58,1.54,0,0-.47-.62-1.69-1.42-.42-.27-1.02-.58-1.39-.78,0,.66.06,2.31,1.92,2.82Z"/>
      <path class="cls-1" d="M151.41,87.1c.4,1.15.99,1.74.99,1.74,0,0,.93-.68,1.3-1.74.57-1.63-.46-2.7-.98-3.11.08.41.2,1.08.21,1.57,0,1.44-.38,2.13-.38,2.13,0,0,.24-.72.22-2.16,0-.49-.09-1.16-.13-1.56-.54.37-1.85,1.33-1.23,3.12Z"/>
      <path class="cls-1" d="M154.08,92.72c.65.78.82,1.46.82,1.46,0,0-.89.38-1.81.19-1.42-.29-1.74-1.49-1.81-2.04.26.24.69.61,1.04.82,1.03.63,1.7.64,1.7.64,0,0-.62-.14-1.64-.77-.35-.22-.79-.56-1.06-.77.49-.23,1.75-.75,2.77.46Z"/>
      <path class="cls-1" d="M161.25,91.63c.7.99,1.44,1.4,1.44,1.4,0,0,.71-.91.77-2.03.09-1.73-1.19-2.47-1.8-2.71.2.37.5.98.63,1.45.41,1.39.23,2.16.23,2.16,0,0,.03-.76-.39-2.13-.14-.47-.41-1.08-.56-1.46-.41.5-1.41,1.79-.31,3.34Z"/>
      <path class="cls-1" d="M155.54,90.77c.7.99,1.44,1.4,1.44,1.4,0,0,.71-.91.77-2.03.09-1.73-1.19-2.47-1.8-2.71.2.37.5.98.63,1.45.41,1.39.23,2.16.23,2.16,0,0,.03-.76-.39-2.13-.14-.47-.41-1.08-.56-1.46-.41.5-1.41,1.79-.31,3.34Z"/>
      <path class="cls-1" d="M158.1,81.65c1.42.23,2.23.8,2.23.8,0,0-.6,1.22-1.76,1.87-1.79,1-3.24.02-3.82-.51.5.02,1.3.02,1.87-.08,1.69-.28,2.41-.88,2.41-.88,0,0-.79.43-2.47.69-.57.09-1.37.12-1.85.16.32-.7,1.17-2.42,3.39-2.06Z"/>
      <path class="cls-1" d="M164.69,83.82c1.46-.14,2.4.21,2.4.21,0,0-.27,1.36-1.25,2.3-1.5,1.45-3.18.86-3.89.49.49-.11,1.28-.32,1.82-.56,1.58-.72,2.14-1.49,2.14-1.49,0,0-.67.63-2.25,1.32-.54.24-1.31.48-1.77.64.13-.77.52-2.69,2.79-2.91Z"/>
      <path class="cls-1" d="M146.32,81.91c.09.15.18.29.28.43.08.12.17.23.26.34.63.69,1.21,1.37,1.57,1.93.3.47.29.63.3,1.07,0,.14,0,.28-.01.43,0,.43-.06.88-.22,1.32-.02.16-.04.32-.05.49,0,.07,0,.14,0,.21,0,.07,0,.14.01.21,0,.07.02.13.02.2,0,.07.02.13.03.2.05.26.13.5.22.73.04.11.09.22.14.33.05.1.1.21.15.31.2.4.41.76.6,1.09.1.17.18.33.27.49.08.16.15.31.21.46.12.31.2.6.25.88.04.28.06.54.04.77-.04.47-.2.81-.35,1.01-.07.1-.14.17-.19.22-.05.05-.07.07-.07.07,0,0,.03-.02.08-.06.05-.04.13-.1.22-.19.09-.09.19-.22.29-.39.09-.17.18-.38.23-.62.11-.49.1-1.12-.08-1.82-.05-.17-.1-.35-.17-.53-.07-.18-.14-.36-.22-.54-.15-.36-.33-.74-.48-1.13-.04-.1-.07-.2-.11-.3-.03-.1-.07-.2-.09-.3-.06-.2-.1-.41-.12-.62,0-.05-.01-.1-.01-.16,0-.05,0-.1,0-.16,0-.05,0-.1,0-.16,0-.05,0-.1.01-.16.02-.21.08-.43.14-.67.06-.24.14-.49.2-.76.06-.27.12-.58.12-.91,0-.16-.01-.33-.04-.49-.01-.08-.03-.16-.05-.24-.02-.08-.04-.16-.07-.24-.1-.31-.24-.61-.4-.88-.06-.1-.12-.2-.19-.3.17.07.35.13.54.17.15.04.31.06.46.08.15.02.3.03.45.04.3.02.58.02.86.02.55,0,1.08.02,1.54.16.11.03.22.08.33.13.1.05.2.11.29.18.18.13.33.3.48.5.15.19.28.4.45.61.04.05.09.1.13.15.04.05.09.1.13.14.05.04.1.09.14.13.05.04.09.09.15.12.4.32.84.54,1.29.67.44.13.89.19,1.31.17.42-.02.82-.1,1.17-.24.09-.03.17-.07.26-.11.04-.02.08-.04.12-.06.04-.02.08-.04.11-.06.15-.08.29-.16.42-.19.14-.03.27-.02.39.04.13.05.24.13.35.21.22.16.39.33.54.5.29.34.45.65.55.87.02.05.04.1.06.15.02.04.03.08.04.11.02.05.03.08.03.09,0,0,0-.04-.02-.09,0-.03-.02-.07-.03-.11-.01-.04-.03-.09-.05-.15-.08-.23-.22-.56-.49-.93-.14-.18-.31-.38-.52-.56-.11-.09-.22-.18-.37-.26-.07-.04-.15-.07-.24-.08-.09-.02-.18-.01-.27,0-.18.03-.34.11-.5.18-.04.02-.08.04-.11.06-.04.02-.08.03-.12.05-.08.03-.16.07-.24.09-.33.11-.7.17-1.08.16-.39,0-.79-.07-1.18-.21-.39-.14-.78-.35-1.11-.64-.04-.03-.08-.08-.12-.11-.04-.04-.08-.08-.12-.12-.04-.04-.07-.09-.11-.13-.04-.04-.07-.08-.11-.13-.14-.19-.27-.4-.42-.61-.08-.11-.16-.22-.25-.32-.09-.11-.2-.21-.31-.3-.12-.09-.24-.17-.37-.24-.13-.07-.27-.13-.41-.17-.14-.05-.28-.08-.43-.11-.14-.03-.29-.05-.43-.07-.29-.03-.57-.04-.85-.05-.56-.02-1.12-.03-1.63-.16-.51-.13-.97-.41-1.4-.78-.25-.21-.49-.46-.72-.71-.06-.09-.11-.18-.16-.27-.06-.12-.12-.24-.17-.36-.18-.43-.3-.91-.35-1.41-.38.36-.77.71-1.17,1.05.08.3.19.6.32.89.07.16.16.32.24.47Z"/>
      <path class="cls-1" d="M113.93,84.92l.21-.22c.08-.08.15-.17.22-.25.07-.09.15-.17.22-.26.14-.17.28-.34.41-.52.06-.09.13-.18.2-.26l.18-.27.09-.13.08-.14.17-.27c.05-.09.1-.19.15-.28.05-.09.11-.18.15-.28.09-.19.19-.38.26-.57l.12-.29.1-.3.05-.15s.03-.1.04-.15l.08-.3c.03-.1.05-.2.07-.31l.03-.15c.01-.05.02-.1.03-.16l.05-.31.04-.32.02-.16c0-.05,0-.11.01-.16l.03-.32c.02-.43.04-.87.03-1.31,0-.88-.08-1.78-.15-2.68-.08-.91-.17-1.83-.23-2.76-.06-.93-.08-1.88-.02-2.84.01-.12.02-.24.03-.36l.02-.18c0-.06.01-.12.02-.18.02-.12.03-.24.05-.36.02-.12.04-.24.06-.36l.03-.18c.01-.06.03-.12.04-.18.03-.12.06-.24.08-.36.03-.12.07-.24.1-.36l.05-.18c.02-.06.04-.12.06-.18.04-.12.08-.23.13-.35.04-.12.1-.23.14-.35.09-.23.21-.45.33-.67.01-.03.03-.06.04-.08l.05-.08.1-.16.1-.16c.03-.05.06-.11.1-.16.07-.1.14-.2.21-.3.04-.05.07-.1.11-.15l.05-.07s.03-.08.05-.12c.07-.17.12-.36.16-.54.04-.19.07-.38.08-.58.07-.8-.05-1.65-.25-2.48-.1-.41-.22-.83-.36-1.23-.03-.1-.07-.21-.11-.31-.04-.1-.08-.21-.11-.31-.08-.21-.15-.42-.23-.63-.15-.42-.31-.84-.45-1.27-.04-.11-.07-.21-.1-.32-.03-.11-.07-.22-.1-.32-.06-.22-.13-.44-.18-.66-.14-.54-.23-1.09-.27-1.65-.04-.1-.02-1.01.02-1.32,0-.03,0-.07.01-.1,0-.06,0-.11.02-.17.01-.06.02-.11.03-.17.02-.11.04-.22.06-.33.03-.11.05-.22.08-.32.12-.41.25-.76.33-1.09.47-1.9-.19-2.71-.77-3.41-1.45-1.77-1.42-4.04-1.42-4.04,0,0,.52,1.3.54,1.36.09.23.21.46.35.69.28.46.67.91,1.08,1.41.21.25.43.51.64.79.21.29.42.6.61.96.18.36.33.77.39,1.21v.08s.02.08.02.08c0,.06.01.11.01.17,0,.06,0,.11,0,.17v.17c-.02.22-.05.44-.08.65-.08.42-.18.8-.25,1.15-.02.09-.03.17-.05.26-.01.09-.02.17-.03.26v.13s-.02.09-.02.13c0,.09,0,.17,0,.26,0,.7.14,1.44.38,2.2.05.19.13.38.19.57.04.1.07.19.11.29.04.1.07.19.11.29.01.04.03.07.04.11.07.17.27.65.33.8.04.1.08.2.12.29.09.21.17.41.26.62.04.11.09.21.13.32.04.11.09.21.13.33.18.45.33.92.46,1.4.13.48.24.98.31,1.5.02.17.04.34.05.51.12,1.06.03,2.15-.47,3.19l-.07.1c-.18.37-.42.73-.69,1.05,0,0,0,0,0,.01-.08.17-.17.34-.24.52-.03.09-.07.17-.11.26l-.09.27s-.03.09-.04.14l-.04.14c-.02.09-.05.19-.07.28l-.06.29s-.02.1-.03.14l-.02.15c-.01.1-.03.2-.05.3l-.03.3s-.01.1-.02.15v.15c-.02.1-.02.2-.03.31-.04.83,0,1.68.07,2.56.07.88.18,1.78.27,2.7.1.92.19,1.87.21,2.85.02.49,0,.99-.01,1.49,0,.13-.02.25-.03.38,0,.06,0,.13-.01.19l-.02.19c-.01.13-.03.26-.04.38-.02.11-.03.21-.05.32.43-.22.88-.41,1.34-.56.8-.26,1.6-.41,2.39-.48.79-.07,1.56-.06,2.31-.03.22.01.45.03.67.04l.09-.02c.05-.01.1-.03.15-.05.1-.03.2-.07.3-.1.1-.04.2-.08.29-.12.1-.04.2-.08.29-.12.09-.05.19-.09.28-.13.05-.02.09-.05.14-.07l.14-.08.14-.08s.09-.05.13-.08c.09-.06.18-.11.26-.17.09-.05.17-.12.26-.18.08-.06.17-.12.25-.18.08-.07.16-.13.24-.2l.12-.1s.08-.07.11-.1c.07-.07.15-.14.22-.21.07-.07.14-.15.21-.22l.1-.11.05-.05s.03-.04.05-.06c.06-.08.13-.15.19-.23.03-.04.07-.07.1-.12l.09-.12c.06-.08.12-.16.18-.24.05-.08.11-.17.16-.25.05-.08.11-.16.15-.25.3-.51.53-1.09.77-1.67.05-.33.08-.66.08-.99,0-.21-.02-.41-.04-.61-.03-.21-.06-.41-.09-.63-.03-.21-.05-.43-.06-.65,0-.22,0-.45.06-.68.05-.23.15-.45.29-.64.07-.1.15-.18.23-.25.08-.07.16-.14.25-.2.16-.12.32-.22.45-.32.07-.05.13-.1.18-.16.03-.03.05-.05.08-.09.02-.03.05-.06.07-.09.08-.13.15-.27.2-.41.04-.15.07-.3.09-.46.04-.31.04-.63.05-.94.01-.31.03-.61.09-.89.06-.28.15-.54.26-.76.22-.45.51-.77.78-1,.26-.23.5-.36.66-.44.08-.04.14-.06.19-.08.04-.02.06-.02.06-.03,0,0-.02.01-.06.03-.04.02-.1.05-.18.1-.15.09-.37.25-.6.49-.23.24-.48.57-.65,1.01-.09.22-.15.46-.19.72-.03.26-.03.54-.02.84,0,.3.03.62.01.97,0,.17-.03.36-.07.54-.05.18-.12.37-.22.55-.03.04-.06.09-.09.13-.03.04-.06.08-.1.12-.07.08-.14.15-.22.21-.15.13-.31.24-.45.35-.14.11-.26.23-.35.36-.09.13-.15.28-.18.44-.06.33-.02.72.05,1.12.03.2.07.41.11.63,0,.05.01.11.02.16.03-.05.05-.1.08-.15.21-.37.46-.73.76-1.05l.05-.06s.04-.04.06-.06l.12-.11c.08-.08.16-.14.25-.21.17-.13.35-.25.53-.35.36-.21.73-.36,1.09-.49.72-.25,1.41-.4,2.03-.58.63-.18,1.2-.39,1.68-.69.24-.15.45-.32.64-.51.19-.19.35-.4.5-.62.29-.44.51-.9.72-1.34.2-.44.39-.86.59-1.24.2-.38.41-.71.62-.98.43-.56.88-.89,1.21-1.05.08-.04.16-.07.22-.1.03-.01.06-.03.09-.03.03,0,.05-.02.08-.02.09-.03.13-.04.13-.04,0,0-.04.02-.13.06-.02,0-.05.02-.07.03-.03.01-.05.03-.08.04-.06.03-.13.07-.21.12-.3.19-.7.55-1.06,1.12-.18.28-.35.62-.51,1-.16.38-.31.81-.47,1.27-.17.46-.36.96-.64,1.47-.14.25-.31.51-.52.75-.2.24-.45.47-.71.66-.54.39-1.17.67-1.82.9-.65.23-1.32.42-1.95.68-.63.26-1.22.6-1.65,1.11-.44.51-.74,1.17-1.02,1.91-.14.37-.28.76-.43,1.16-.08.2-.16.4-.25.61-.09.21-.2.41-.3.61-.05.1-.11.2-.17.3-.06.1-.12.2-.18.3l-.2.29-.1.14s-.07.09-.11.14c-.07.09-.15.18-.22.27-.02.02-.04.05-.06.07l-.06.07-.12.13c-.08.09-.16.18-.24.26-.08.08-.17.17-.26.25-.04.04-.08.08-.13.12l-.14.12c-.09.08-.18.16-.27.23-.09.07-.19.15-.29.22-.1.07-.19.15-.29.21-.09.06-.18.12-.27.18.98.11,1.93.19,2.84.2,1.27.02,2.48-.15,3.54-.58.26-.1.54-.24.85-.37.31-.13.66-.27,1.05-.35.2-.04.41-.06.62-.05.21,0,.42.04.62.09.39.11.71.27.99.43.28.16.53.32.76.44.12.06.23.13.36.18.06.03.12.06.18.08.06.03.12.05.18.08.49.2.99.34,1.5.43.23.04.46.07.69.08.18-.12.34-.27.48-.44.12-.15.23-.32.32-.5.09-.18.17-.36.23-.55.12-.37.19-.77.24-1.17.05-.4.07-.8.11-1.2.02-.2.04-.4.07-.59.03-.2.06-.39.11-.58.09-.38.21-.74.36-1.08.3-.67.68-1.23,1.09-1.69.41-.46.85-.8,1.26-1.07.2-.13.4-.24.58-.34.18-.1.34-.19.47-.28.28-.18.47-.35.58-.49.03-.03.05-.06.07-.09.02-.03.04-.05.05-.07.02-.03.04-.05.04-.05,0,0-.01.02-.03.06-.01.02-.02.05-.04.07-.02.03-.04.06-.06.1-.1.14-.28.34-.55.55-.13.11-.29.22-.45.33-.17.12-.35.24-.54.38-.37.28-.76.65-1.12,1.11-.36.46-.68,1.01-.92,1.65-.12.32-.21.65-.28,1.01-.03.18-.06.36-.08.54-.02.19-.03.38-.04.57-.02.39-.04.8-.07,1.22-.02.21-.04.43-.08.65-.04.22-.09.44-.15.66-.07.22-.16.44-.26.65-.11.21-.23.42-.39.62,0,0-.01.01-.02.02.43-.03.86-.09,1.26-.19.92-.21,1.77-.66,2.65-1.01.44-.17.89-.32,1.35-.41.23-.04.46-.07.69-.07.23,0,.45,0,.66.02.42.04.82.11,1.19.19.37.08.72.15,1.06.22.34.06.65.11.96.13.3.02.59.01.86-.03.53-.09.97-.33,1.28-.62.31-.29.52-.6.68-.85.16-.25.27-.45.34-.59.07-.13.11-.2.11-.2,0,0-.03.08-.09.21-.06.14-.15.35-.29.62-.14.27-.32.6-.63.94-.04.04-.08.08-.12.12-.04.04-.09.08-.13.12-.05.04-.1.08-.15.12-.05.04-.11.07-.16.11-.23.14-.49.25-.78.33-.29.08-.61.11-.93.11-.33,0-.67-.02-1.02-.06-.35-.04-.71-.09-1.08-.14-.37-.05-.75-.08-1.13-.09-.19,0-.39,0-.58.03-.19.02-.38.06-.58.1-.39.1-.78.26-1.18.45-.4.19-.81.41-1.26.63-.22.11-.45.22-.69.32-.06.02-.12.05-.18.08-.06.02-.13.05-.19.07-.06.02-.13.05-.19.07-.06.02-.13.04-.19.06-1.04.32-2.2.45-3.39.31-.58-.07-1.17-.19-1.75-.39l-1.99-.77c-.17-.1-.38-.16-.64-.2-.14-.02-.3-.04-.46-.04-.19.05-.39.14-.62.25-.26.13-.55.29-.87.43-.64.29-1.33.5-2.02.64-.09.02-.18.03-.26.05-.09.01-.18.03-.26.04-.18.03-.35.04-.53.07-.18.01-.35.03-.53.04-.09,0-.18,0-.27.01h-.13s-.13,0-.13,0c-1.42.04-2.83-.1-4.22-.21-.7-.05-1.39-.11-2.08-.12-.54-.01-1.08,0-1.61.03,0,0,0,0,.01,0-.12,0-.25.01-.37.04-.08,0-.17.01-.25.02-.24.03-.48.07-.71.12-.18.03-.37.07-.55.13-.07.01-.13.03-.2.05,0,0,0,0-.01,0-.1.03-.2.06-.3.09-.62.21-1.22.52-1.78.89l-.05.03-.05.04-.1.07c-.07.05-.14.1-.2.15l-.2.16s-.07.05-.1.08l-.09.08-.19.17-.18.18s-.05.05-.07.07c-.03.06-.07.13-.1.19-.06.12-.12.24-.19.35l-.2.34-.1.17-.11.17-.22.33c-.07.11-.15.21-.23.32-.15.22-.31.42-.47.62-.08.1-.16.2-.25.3-.08.1-.17.2-.25.3l-.1.11h-1.95c0-.46,0-1.06,0-1.53Z"/>
      <path class="cls-1" d="M108.88,48.1s.1.01.18.03c.15.04.39.12.62.34.11.11.22.25.32.41.1.16.2.33.32.5.24.35.53.75.87,1.15.17.19.37.38.59.5.22.12.49.16.8.16.15,0,.31,0,.47-.01.08,0,.17,0,.26,0,.09,0,.18,0,.27,0,.18,0,.36.03.55.06.09.02.18.04.27.06.05.01.09.02.14.03.05.01.09.03.14.04.37.1.72.26,1.07.46.04.03.09.05.13.08.04.03.09.05.13.08.08.06.17.12.25.17.08.06.16.13.24.19.04.03.08.06.12.1l.11.11s.02.02.03.03c.03.38.06,1.09.04,1.07-.06-.08-.11-.15-.16-.22-.12-.14-.23-.28-.37-.41l-.1-.1s-.07-.06-.1-.09c-.07-.06-.13-.12-.21-.17-.07-.05-.14-.11-.21-.16-.03-.03-.07-.05-.11-.07-.04-.02-.07-.05-.11-.07-.3-.18-.61-.34-.93-.45-.04-.01-.08-.03-.12-.04-.04-.01-.08-.02-.12-.03-.08-.02-.16-.04-.24-.06-.16-.03-.32-.07-.48-.08-.08,0-.16-.02-.24-.02-.08,0-.16,0-.24,0-.16,0-.33,0-.5-.02-.17-.01-.34-.03-.5-.08-.17-.04-.33-.11-.47-.2-.29-.18-.49-.41-.66-.64-.33-.45-.59-.87-.79-1.25-.1-.19-.19-.37-.27-.54s-.16-.3-.26-.41c-.19-.22-.41-.33-.55-.38-.07-.03-.13-.04-.17-.05-.04,0-.06-.01-.06-.01,0,0,.02,0,.06,0Z"/>
      <path class="cls-1" d="M124.46,57.9c.07-.28.06-.42.05-.56,0-.21-.05-.44-.12-.67-.06-.23-.15-.48-.22-.73-.08-.25-.15-.52-.19-.79,0-.07-.02-.14-.02-.21,0-.07-.01-.14-.01-.21,0-.07,0-.14,0-.2,0-.07,0-.13.01-.2.02-.26.07-.51.13-.75.03-.12.07-.23.1-.34.04-.11.07-.22.11-.32.16-.42.33-.8.48-1.15.08-.18.14-.35.21-.52.06-.16.11-.32.16-.48.08-.32.13-.62.15-.91.01-.28,0-.54-.05-.77-.09-.46-.29-.78-.46-.96-.08-.09-.16-.16-.21-.2-.05-.04-.08-.06-.08-.06,0,0,.03.02.09.05.06.03.14.08.24.17.1.08.22.2.33.35.11.16.22.36.3.59.16.48.23,1.11.13,1.82-.03.18-.06.36-.11.55-.05.18-.1.37-.16.56-.11.38-.24.77-.35,1.17-.03.1-.05.2-.08.31-.02.1-.04.21-.06.31-.04.21-.05.42-.05.63,0,.05,0,.1,0,.16,0,.05,0,.1.01.16,0,.05.02.1.02.15,0,.05.02.1.03.15.05.21.12.42.21.65.09.23.19.47.29.74.09.27.18.56.22.89.02.16.02.33.01.49,0,.08-.01.16-.02.25-.01.08-.02.16-.04.24-.06.32-.17.63-.3.92-.05.11-.1.22-.15.32.17-.09.34-.17.51-.23.15-.05.3-.1.45-.13.15-.04.3-.07.44-.09.29-.05.58-.08.85-.12.55-.07,1.07-.14,1.52-.33.11-.05.21-.1.31-.16.1-.06.19-.13.27-.21.16-.15.3-.34.42-.55.12-.21.24-.43.38-.65.03-.06.07-.11.11-.16.04-.05.08-.11.12-.16.04-.05.09-.1.13-.15.04-.05.08-.1.13-.14.36-.36.78-.63,1.2-.81.43-.18.87-.28,1.29-.31.42-.03.83.01,1.19.11.09.02.18.05.27.08.04.02.09.03.13.05.04.02.08.03.12.05.16.07.3.13.44.14.14.02.27-.01.39-.08.12-.07.23-.16.32-.25.2-.18.35-.38.48-.56.25-.37.38-.7.45-.92.02-.06.03-.11.04-.15.01-.04.02-.08.03-.11.01-.05.02-.08.02-.09,0,0,0,.04-.01.09,0,.03,0,.07-.02.11,0,.04-.02.1-.03.15-.05.23-.15.58-.38.97-.12.2-.26.41-.46.61-.1.1-.2.21-.34.3-.07.04-.15.08-.23.11-.09.03-.18.03-.27.03-.18-.01-.35-.07-.51-.13-.04-.01-.08-.03-.12-.04-.04-.01-.08-.02-.12-.03-.08-.02-.16-.05-.25-.06-.34-.07-.71-.09-1.1-.04-.38.05-.77.16-1.15.34-.37.18-.73.44-1.03.76-.04.04-.07.08-.11.13-.03.04-.07.09-.11.13-.03.05-.06.09-.09.14-.03.05-.06.09-.09.14-.12.2-.22.42-.35.66-.06.12-.13.23-.21.35-.08.12-.18.23-.28.34-.11.1-.22.2-.34.28-.12.08-.25.16-.39.22-.13.06-.27.11-.41.16-.14.04-.28.08-.42.11-.28.06-.56.11-.84.15-.55.08-1.11.16-1.6.34-.49.18-.92.51-1.31.93-.22.24-.43.51-.63.79-.05.1-.09.19-.13.29-.05.12-.09.25-.13.38-.15.51-.21,1.08-.19,1.66.01.37.06.76.12,1.14-.37-.64-1.04-1.07-1.47-1.6.03-.54.12-1.08.29-1.6.05-.17.12-.33.19-.49.07-.16.15-.31.23-.46.16-.29.33-.56.5-.81.15-.22.29-.43.42-.63.16-.34.42-.75.61-1.12"/>
      <path class="cls-1" d="M118.44,71.01s5.55-.82,5.09-5.96c-.46-5.14-1.47-2.14-1.47-1.6,0,1.91,0,5.53-3.42,5.37-4.18-.2-.2,2.2-.2,2.2Z"/>
      <path class="cls-1" d="M166.51,95.29c.1.91-.12,1.51-.12,1.51,0,0-.85-.16-1.45-.77-.92-.93-.56-1.99-.33-2.44.07.31.21.8.36,1.14.46.99.95,1.34.95,1.34,0,0-.4-.41-.84-1.4-.15-.34-.31-.82-.41-1.11.49.08,1.69.31,1.84,1.74Z"/>
    </g>
  </g>
  <g>
    <path class="cls-1" d="M43.24,103.57c-1.04-.63-1.88-.71-1.88-.71,0,0-.28,1.12.11,2.17.61,1.62,2.08,1.79,2.74,1.76-.33-.26-.85-.7-1.16-1.07-.93-1.1-1.07-1.88-1.07-1.88,0,0,.27.71,1.21,1.8.32.37.81.83,1.1,1.12.18-.63.57-2.2-1.05-3.18Z"/>
    <g>
      <path class="cls-1" d="M95.51,162.18c.94.41,1.65.39,1.65.39,0,0,.11-.96-.33-1.8-.68-1.29-1.94-1.27-2.48-1.18.3.18.78.49,1.09.77.9.82,1.1,1.46,1.1,1.46,0,0-.31-.56-1.21-1.37-.31-.28-.77-.6-1.04-.81-.08.54-.24,1.91,1.23,2.55Z"/>
      <path class="cls-1" d="M44.34,128.85c-1.05,1.38-2.12,1.92-2.12,1.92,0,0-.96-1.33-.99-2.94-.05-2.47,1.82-3.46,2.71-3.77-.3.52-.76,1.37-.98,2.03-.66,1.95-.43,3.06-.43,3.06,0,0,0-1.08.67-3.02.23-.66.64-1.52.87-2.06.57.74,1.91,2.62.27,4.77Z"/>
      <path class="cls-1" d="M53.85,141.18c-1.55.06-2.54-.36-2.54-.36,0,0,.37-1.42,1.46-2.36,1.68-1.44,3.43-.72,4.15-.29-.53.09-1.38.26-1.96.49-1.72.67-2.36,1.45-2.36,1.45,0,0,.74-.63,2.47-1.27.59-.22,1.42-.43,1.92-.57-.19.81-.72,2.82-3.14,2.92Z"/>
      <path class="cls-1" d="M57.12,136.92c-1.06.04-1.74-.25-1.74-.25,0,0,.25-.97,1-1.62,1.15-.99,2.35-.5,2.84-.2-.36.06-.94.18-1.34.33-1.18.46-1.62.99-1.62.99,0,0,.51-.43,1.69-.87.4-.15.97-.29,1.31-.39-.13.56-.49,1.93-2.15,2Z"/>
      <path class="cls-1" d="M53.46,127.66c-1.06.04-1.74-.25-1.74-.25,0,0,.25-.97,1-1.62,1.15-.99,2.35-.5,2.84-.2-.36.06-.94.18-1.34.33-1.18.46-1.62.99-1.62.99,0,0,.51-.43,1.69-.87.4-.15.97-.29,1.31-.39-.13.56-.49,1.93-2.15,2Z"/>
      <path class="cls-1" d="M63.24,139.2c-1.06.04-1.74-.25-1.74-.25,0,0,.25-.97,1-1.62,1.15-.99,2.35-.5,2.84-.2-.36.06-.94.18-1.34.33-1.18.46-1.62.99-1.62.99,0,0,.51-.43,1.69-.87.4-.15.97-.29,1.31-.39-.13.56-.49,1.93-2.15,2Z"/>
      <path class="cls-1" d="M71.68,133.91c.14,1.21-.14,2-.14,2,0,0-1.13-.21-1.93-1-1.22-1.23-.76-2.63-.46-3.22.1.41.28,1.06.49,1.5.62,1.31,1.27,1.76,1.27,1.76,0,0-.53-.54-1.13-1.85-.2-.44-.42-1.08-.56-1.46.64.1,2.24.4,2.46,2.28Z"/>
      <path class="cls-1" d="M63.18,135.14c-.57.71-1.13.98-1.13.98,0,0-.49-.71-.49-1.55,0-1.29.99-1.79,1.46-1.95-.16.27-.41.71-.54,1.05-.37,1.02-.26,1.6-.26,1.6,0,0,0-.57.38-1.58.13-.34.35-.79.48-1.07.29.39.97,1.4.09,2.5Z"/>
      <path class="cls-1" d="M60.22,129.57c.18,1.52-.17,2.52-.17,2.52,0,0-1.43-.26-2.43-1.27-1.54-1.55-.96-3.32-.59-4.07.13.51.36,1.34.62,1.9.78,1.65,1.6,2.22,1.6,2.22,0,0-.67-.69-1.43-2.33-.26-.56-.53-1.36-.7-1.85.81.12,2.83.5,3.1,2.87Z"/>
      <path class="cls-1" d="M50.51,125.06c.18,1.52-.17,2.52-.17,2.52,0,0-1.43-.26-2.43-1.27-1.54-1.55-.96-3.32-.59-4.07.13.51.36,1.34.62,1.9.78,1.65,1.6,2.22,1.6,2.22,0,0-.67-.69-1.43-2.33-.26-.56-.53-1.36-.7-1.85.81.12,2.83.5,3.1,2.87Z"/>
      <path class="cls-1" d="M75.23,126.03c-.82,1.14-1.68,1.61-1.68,1.61,0,0-.81-1.06-.87-2.36-.09-2.01,1.4-2.85,2.11-3.13-.23.43-.58,1.13-.75,1.67-.49,1.6-.28,2.5-.28,2.5,0,0-.03-.88.47-2.47.17-.54.49-1.25.66-1.69.48.59,1.61,2.09.33,3.87Z"/>
      <path class="cls-1" d="M80.94,150.13c-1.04.63-1.88.7-1.88.7,0,0-.28-1.12.11-2.17.61-1.62,2.08-1.78,2.74-1.76-.33.26-.85.7-1.16,1.07-.93,1.1-1.07,1.88-1.07,1.88,0,0,.27-.71,1.21-1.8.32-.37.81-.83,1.1-1.11.18.63.57,2.2-1.05,3.18Z"/>
      <path class="cls-1" d="M84.57,159.95c-.81.91-1.58,1.23-1.58,1.23,0,0-.6-.98-.54-2.1.1-1.73,1.46-2.32,2.09-2.49-.24.35-.6.92-.79,1.37-.56,1.33-.46,2.12-.46,2.12,0,0,.05-.76.62-2.08.19-.45.53-1.03.72-1.39.36.55,1.2,1.93-.06,3.35Z"/>
      <path class="cls-1" d="M63.53,116.11c-1.12-.62-2-.66-2-.66,0,0-.25,1.18.21,2.27.71,1.68,2.26,1.79,2.95,1.73-.36-.26-.92-.7-1.27-1.08-1.03-1.12-1.21-1.93-1.21-1.93,0,0,.32.73,1.35,1.84.35.38.89.84,1.2,1.13.16-.67.51-2.34-1.24-3.3Z"/>
      <path class="cls-1" d="M90.96,145.71c1.2-.18,2,.08,2,.08,0,0-.17,1.14-.94,1.96-1.19,1.26-2.61.84-3.21.57.4-.11,1.05-.32,1.49-.54,1.29-.66,1.72-1.32,1.72-1.32,0,0-.53.55-1.81,1.19-.44.22-1.07.45-1.45.6.08-.65.33-2.25,2.2-2.53Z"/>
      <path class="cls-1" d="M87.03,152.71c1.21.05,1.99-.28,1.99-.28,0,0-.28-1.11-1.14-1.85-1.31-1.13-2.68-.58-3.25-.24.41.07,1.08.21,1.53.39,1.35.53,1.84,1.14,1.84,1.14,0,0-.58-.49-1.92-1-.46-.17-1.11-.34-1.5-.45.14.64.55,2.21,2.44,2.29Z"/>
      <path class="cls-1" d="M92.61,156.13c-.42,1.14-1.03,1.72-1.03,1.72,0,0-.91-.7-1.26-1.77-.53-1.65.52-2.69,1.05-3.08-.09.41-.23,1.07-.24,1.56-.04,1.44.33,2.14.33,2.14,0,0-.23-.73-.17-2.16.02-.49.12-1.15.17-1.56.53.38,1.82,1.37,1.15,3.15Z"/>
      <path class="cls-1" d="M58.81,118.45c-.59-.61-.77-1.17-.77-1.17,0,0,.72-.36,1.5-.25,1.2.17,1.53,1.15,1.62,1.6-.23-.18-.6-.47-.91-.63-.89-.47-1.45-.45-1.45-.45,0,0,.53.08,1.41.55.3.16.69.43.93.58-.4.22-1.42.72-2.33-.23Z"/>
      <path class="cls-1" d="M67.21,124.19c-.84.55-1.53.64-1.53.64,0,0-.27-.91.03-1.79.45-1.36,1.66-1.54,2.2-1.54-.26.23-.68.6-.93.92-.73.94-.83,1.59-.83,1.59,0,0,.2-.59.94-1.52.25-.32.64-.71.87-.95.17.51.54,1.8-.77,2.65Z"/>
      <path class="cls-1" d="M96.83,156.29c.43,1.19.34,2.06.34,2.06,0,0-1.2.06-2.2-.55-1.54-.95-1.41-2.49-1.25-3.16.2.39.54,1.01.86,1.41.94,1.18,1.71,1.48,1.71,1.48,0,0-.67-.42-1.6-1.61-.32-.4-.68-1-.92-1.35.68-.06,2.37-.14,3.05,1.72Z"/>
      <path class="cls-1" d="M87.82,161.03c-.07,1.04-.43,1.66-.43,1.66,0,0-.92-.35-1.46-1.15-.84-1.22-.22-2.34.12-2.79.02.36.07.94.18,1.34.31,1.2.79,1.68.79,1.68,0,0-.36-.54-.66-1.74-.1-.41-.18-.98-.24-1.32.53.18,1.82.69,1.71,2.31Z"/>
      <path class="cls-1" d="M73.79,136.78c-.94.64-1.32,1.32-1.32,1.32,0,0,.84.67,1.89.74,1.61.11,2.32-1.08,2.56-1.65-.35.18-.92.45-1.36.58-1.3.37-2.02.19-2.02.19,0,0,.71.04,2-.34.44-.13,1.02-.37,1.37-.51-.46-.39-1.66-1.33-3.11-.33Z"/>
      <path class="cls-1" d="M92.35,161.46c.49,1.03.48,1.81.48,1.81,0,0-1.06.16-2.01-.31-1.45-.71-1.47-2.1-1.38-2.71.21.33.57.85.89,1.18.94.97,1.65,1.17,1.65,1.17,0,0-.63-.32-1.56-1.29-.32-.33-.69-.83-.94-1.13.6-.11,2.1-.33,2.86,1.27Z"/>
      <path class="cls-1" d="M95.14,148.96c1.44-.37,2.45-.17,2.45-.17,0,0-.06,1.41-.89,2.51-1.28,1.69-3.07,1.37-3.83,1.11.48-.19,1.24-.53,1.74-.86,1.48-.97,1.92-1.84,1.92-1.84,0,0-.57.74-2.05,1.69-.51.32-1.24.69-1.68.93,0-.8.1-2.79,2.35-3.37Z"/>
      <path class="cls-1" d="M51.26,134.62c-.93.78-1.75.99-1.75.99,0,0-.45-1.06-.22-2.16.35-1.7,1.78-2.08,2.43-2.16-.28.31-.73.82-.98,1.24-.75,1.23-.77,2.03-.77,2.03,0,0,.16-.74.92-1.96.26-.42.67-.94.92-1.27.27.59.9,2.09-.55,3.31Z"/>
      <path class="cls-1" d="M55.48,132.79c-.11,1.21-.54,1.93-.54,1.93,0,0-1.07-.43-1.68-1.37-.95-1.45-.21-2.73.2-3.25.02.42.06,1.1.18,1.57.34,1.4.89,1.98.89,1.98,0,0-.41-.64-.73-2.04-.11-.48-.19-1.14-.25-1.55.61.23,2.11.84,1.95,2.73Z"/>
      <path class="cls-1" d="M41.1,120.68c-1.44-.06-2.35.33-2.35.33,0,0,.34,1.32,1.35,2.19,1.55,1.34,3.17.68,3.84.28-.49-.09-1.28-.25-1.82-.46-1.59-.62-2.18-1.35-2.18-1.35,0,0,.69.58,2.28,1.18.54.2,1.31.4,1.77.54-.17-.75-.66-2.61-2.89-2.71Z"/>
      <g>
        <path class="cls-1" d="M60.29,150.38c-1.13.45-1.97.38-1.97.38,0,0-.09-1.15.47-2.12.87-1.5,2.35-1.42,2.99-1.28-.37.2-.95.55-1.32.86-1.1.93-1.37,1.68-1.37,1.68,0,0,.39-.65,1.5-1.57.38-.31.94-.68,1.27-.92.07.65.2,2.27-1.57,2.96Z"/>
        <path class="cls-1" d="M73.93,144.74c-.27,1.19-.79,1.84-.79,1.84,0,0-1-.57-1.49-1.58-.75-1.56.15-2.74.62-3.19-.04.42-.08,1.09-.03,1.58.15,1.44.62,2.08.62,2.08,0,0-.32-.69-.46-2.12-.05-.49-.04-1.16-.04-1.57.58.31,1.98,1.11,1.57,2.96Z"/>
        <path class="cls-1" d="M79.63,154.28c.39,1.15.28,1.98.28,1.98,0,0-1.15.03-2.09-.58-1.45-.94-1.29-2.42-1.13-3.05.18.38.5.98.8,1.37.88,1.15,1.61,1.46,1.61,1.46,0,0-.63-.42-1.49-1.57-.29-.39-.63-.97-.85-1.32.65-.04,2.27-.08,2.88,1.72Z"/>
        <path class="cls-1" d="M71.9,150.62c-.56.85-.66,1.54-.66,1.54,0,0,.92.28,1.82-.02,1.38-.45,1.57-1.68,1.57-2.23-.23.26-.61.68-.94.93-.96.74-1.61.83-1.61.83,0,0,.6-.2,1.55-.95.32-.25.72-.65.97-.88-.52-.17-1.82-.55-2.7.77Z"/>
        <path class="cls-1" d="M64.65,150.34c-.59,1.06-1.27,1.55-1.27,1.55,0,0-.8-.82-.99-1.93-.29-1.71.91-2.59,1.49-2.9-.15.39-.38,1.03-.47,1.51-.25,1.42.02,2.17.02,2.17,0,0-.12-.75.15-2.16.09-.48.29-1.12.39-1.52.47.45,1.6,1.62.68,3.28Z"/>
        <path class="cls-1" d="M70.23,148.84c-.59,1.06-1.27,1.55-1.27,1.55,0,0-.8-.82-.99-1.93-.29-1.71.91-2.59,1.49-2.9-.15.39-.38,1.03-.47,1.51-.25,1.42.02,2.17.02,2.17,0,0-.12-.75.15-2.16.09-.48.29-1.12.39-1.52.47.45,1.6,1.62.68,3.28Z"/>
        <path class="cls-1" d="M78.45,158.13c.04,1.21-.3,1.98-.3,1.98,0,0-1.11-.3-1.84-1.16-1.12-1.32-.54-2.69-.2-3.25.07.41.19,1.08.37,1.54.51,1.35,1.12,1.86,1.12,1.86,0,0-.48-.59-.97-1.94-.17-.46-.33-1.11-.43-1.5.63.15,2.2.58,2.26,2.47Z"/>
        <path class="cls-1" d="M71.88,154.94c-.54,1.44-.45,2.49-.45,2.49,0,0,1.45.09,2.67-.64,1.88-1.13,1.74-3,1.56-3.81-.25.47-.67,1.21-1.07,1.69-1.16,1.41-2.1,1.77-2.1,1.77,0,0,.82-.5,1.96-1.92.39-.48.84-1.2,1.13-1.62-.82-.08-2.87-.2-3.71,2.04Z"/>
        <path class="cls-1" d="M66.67,140.07c-1.38.39-2.13,1.05-2.13,1.05,0,0,.73,1.15,1.96,1.66,1.89.79,3.23-.35,3.74-.93-.49.07-1.29.16-1.87.13-1.71-.09-2.49-.6-2.49-.6,0,0,.83.34,2.53.41.58.03,1.37-.03,1.85-.04-.4-.66-1.44-2.28-3.6-1.67Z"/>
        <path class="cls-1" d="M60.33,143.07c-1.44.02-2.33.47-2.33.47,0,0,.41,1.3,1.47,2.11,1.62,1.25,3.21.49,3.85.06-.49-.06-1.29-.17-1.84-.35-1.63-.53-2.26-1.22-2.26-1.22,0,0,.72.54,2.34,1.05.55.17,1.33.32,1.8.43-.21-.74-.81-2.57-3.05-2.54Z"/>
      </g>
      <path class="cls-1" d="M35.38,109.17c-1.19-.32-2.03-.16-2.03-.16,0,0,.04,1.17.72,2.09,1.05,1.41,2.53,1.16,3.17.96-.39-.16-1.02-.45-1.44-.72-1.22-.82-1.58-1.54-1.58-1.54,0,0,.47.62,1.69,1.42.42.27,1.02.58,1.39.78,0-.66-.06-2.31-1.92-2.82Z"/>
      <path class="cls-1" d="M49.53,113.27c-.4-1.15-.99-1.74-.99-1.74,0,0-.93.68-1.3,1.74-.57,1.63.46,2.7.98,3.11-.08-.41-.2-1.08-.21-1.57,0-1.44.38-2.13.38-2.13,0,0-.24.72-.22,2.16,0,.49.09,1.16.13,1.56.54-.37,1.85-1.33,1.23-3.12Z"/>
      <path class="cls-1" d="M46.86,107.65c-.65-.78-.82-1.46-.82-1.46,0,0,.89-.38,1.81-.19,1.42.29,1.74,1.49,1.81,2.04-.26-.24-.69-.61-1.04-.82-1.03-.63-1.7-.64-1.7-.64,0,0,.62.14,1.64.77.35.22.79.56,1.06.77-.49.23-1.75.75-2.77-.46Z"/>
      <path class="cls-1" d="M39.69,108.74c-.7-.99-1.44-1.4-1.44-1.4,0,0-.71.91-.77,2.03-.09,1.73,1.19,2.47,1.8,2.71-.2-.37-.5-.98-.63-1.45-.41-1.39-.23-2.16-.23-2.16,0,0-.03.76.39,2.13.14.47.41,1.08.56,1.46.41-.5,1.41-1.79.31-3.34Z"/>
      <path class="cls-1" d="M45.4,109.6c-.7-.99-1.44-1.4-1.44-1.4,0,0-.71.91-.77,2.03-.09,1.73,1.19,2.47,1.8,2.71-.2-.37-.5-.98-.63-1.45-.41-1.39-.23-2.16-.23-2.16,0,0-.03.76.39,2.13.14.47.41,1.08.56,1.46.41-.5,1.41-1.79.31-3.34Z"/>
      <path class="cls-1" d="M42.84,118.72c-1.42-.23-2.23-.8-2.23-.8,0,0,.6-1.22,1.76-1.87,1.79-1,3.24-.02,3.82.51-.5-.02-1.3-.02-1.87.08-1.69.28-2.41.88-2.41.88,0,0,.79-.43,2.47-.69.57-.09,1.37-.12,1.85-.16-.32.7-1.17,2.42-3.39,2.06Z"/>
      <path class="cls-1" d="M36.25,116.55c-1.46.14-2.4-.21-2.4-.21,0,0,.27-1.36,1.25-2.3,1.5-1.45,3.18-.86,3.89-.49-.49.11-1.28.32-1.82.56-1.58.72-2.14,1.49-2.14,1.49,0,0,.67-.63,2.25-1.32.54-.24,1.31-.48,1.77-.64-.13.77-.52,2.69-2.79,2.91Z"/>
      <path class="cls-1" d="M54.62,118.46c-.09-.15-.18-.29-.28-.43-.08-.12-.17-.23-.26-.34-.63-.69-1.21-1.37-1.57-1.93-.3-.47-.29-.63-.3-1.07,0-.14,0-.28.01-.43,0-.43.06-.88.22-1.32.02-.16.04-.32.05-.49,0-.07,0-.14,0-.21,0-.07,0-.14-.01-.21,0-.07-.02-.13-.02-.2,0-.07-.02-.13-.03-.2-.05-.26-.13-.5-.22-.73-.04-.11-.09-.22-.14-.33-.05-.1-.1-.21-.15-.31-.2-.4-.41-.76-.6-1.09-.1-.17-.18-.33-.27-.49-.08-.16-.15-.31-.21-.46-.12-.31-.2-.6-.25-.88-.04-.28-.06-.54-.04-.77.04-.47.2-.81.35-1.01.07-.1.14-.17.19-.22.05-.05.07-.07.07-.07,0,0-.03.02-.08.06-.05.04-.13.1-.22.19-.09.09-.19.22-.29.39-.09.17-.18.38-.23.62-.11.49-.1,1.12.08,1.82.05.17.1.35.17.53.07.18.14.36.22.54.15.36.33.74.48,1.13.04.1.07.2.11.3.03.1.07.2.09.3.06.2.1.41.12.62,0,.05.01.1.01.16,0,.05,0,.1,0,.16,0,.05,0,.1,0,.16,0,.05,0,.1-.01.16-.02.21-.08.43-.14.67-.06.24-.14.49-.2.76-.06.27-.12.58-.12.91,0,.16.01.33.04.49.01.08.03.16.05.24.02.08.04.16.07.24.1.31.24.61.4.88.06.1.12.2.19.3-.17-.07-.35-.13-.54-.17-.15-.04-.31-.06-.46-.08-.15-.02-.3-.03-.45-.04-.3-.02-.58-.02-.86-.02-.55,0-1.08-.02-1.54-.16-.11-.03-.22-.08-.33-.13-.1-.05-.2-.11-.29-.18-.18-.13-.33-.3-.48-.5-.15-.19-.28-.4-.45-.61-.04-.05-.09-.1-.13-.15-.04-.05-.09-.1-.13-.14-.05-.04-.1-.09-.14-.13-.05-.04-.09-.09-.15-.12-.4-.32-.84-.54-1.29-.67-.44-.13-.89-.19-1.31-.17-.42.02-.82.1-1.17.24-.09.03-.17.07-.26.11-.04.02-.08.04-.12.06-.04.02-.08.04-.11.06-.15.08-.29.16-.42.19-.14.03-.27.02-.39-.04-.13-.05-.24-.13-.35-.21-.22-.16-.39-.33-.54-.5-.29-.34-.45-.65-.55-.87-.02-.05-.04-.1-.06-.15-.02-.04-.03-.08-.04-.11-.02-.05-.03-.08-.03-.09,0,0,0,.04.02.09,0,.03.02.07.03.11.01.04.03.09.05.15.08.23.22.56.49.93.14.18.31.38.52.56.11.09.22.18.37.26.07.04.15.07.24.08.09.02.18.01.27,0,.18-.03.34-.11.5-.18.04-.02.08-.04.11-.06.04-.02.08-.03.12-.05.08-.03.16-.07.24-.09.33-.11.7-.17,1.08-.16.39,0,.79.07,1.18.21.39.14.78.35,1.11.64.04.03.08.08.12.11.04.04.08.08.12.12.04.04.07.09.11.13.04.04.07.08.11.13.14.19.27.4.42.61.08.11.16.22.25.32.09.11.2.21.31.3.12.09.24.17.37.24.13.07.27.13.41.17.14.05.28.08.43.11.14.03.29.05.43.07.29.03.57.04.85.05.56.02,1.12.03,1.63.16.51.13.97.41,1.4.78.25.21.49.46.72.71.06.09.11.18.16.27.06.12.12.24.17.36.18.43.3.91.35,1.41.38-.36.77-.71,1.17-1.05-.08-.3-.19-.6-.32-.89-.07-.16-.16-.32-.24-.47Z"/>
      <path class="cls-1" d="M87.01,115.45l-.21.22c-.08.08-.15.17-.22.25-.07.09-.15.17-.22.26-.14.17-.28.34-.41.52-.06.09-.13.18-.2.26l-.18.27-.09.13-.08.14-.17.27c-.05.09-.1.19-.15.28-.05.09-.11.18-.15.28-.09.19-.19.38-.26.57l-.12.29-.1.3-.05.15s-.03.1-.04.15l-.08.3c-.03.1-.05.2-.07.31l-.03.15c-.01.05-.02.1-.03.16l-.05.31-.04.32-.02.16c0,.05,0,.11-.01.16l-.03.32c-.02.43-.04.87-.03,1.31,0,.88.08,1.78.15,2.68.08.91.17,1.83.23,2.76.06.93.08,1.88.02,2.84-.01.12-.02.24-.03.36l-.02.18c0,.06-.01.12-.02.18-.02.12-.03.24-.05.36-.02.12-.04.24-.06.36l-.03.18c-.01.06-.03.12-.04.18-.03.12-.06.24-.08.36-.03.12-.07.24-.1.36l-.05.18c-.02.06-.04.12-.06.18-.04.12-.08.23-.13.35-.04.12-.1.23-.14.35-.09.23-.21.45-.33.67-.01.03-.03.06-.04.08l-.05.08-.1.16-.1.16c-.03.05-.06.11-.1.16-.07.1-.14.2-.21.3-.04.05-.07.1-.11.15l-.05.07s-.03.08-.05.12c-.07.17-.12.36-.16.54-.04.19-.07.38-.08.58-.07.8.05,1.65.25,2.48.1.41.22.83.36,1.23.03.1.07.21.11.31.04.1.08.21.11.31.08.21.15.42.23.63.15.42.31.84.45,1.27.04.11.07.21.1.32.03.11.07.22.1.32.06.22.13.44.18.66.14.54.23,1.09.27,1.65.04.1.02,1.01-.02,1.32,0,.03,0,.07-.01.1,0,.06,0,.11-.02.17-.01.06-.02.11-.03.17-.02.11-.04.22-.06.33-.03.11-.05.22-.08.32-.12.41-.25.76-.33,1.09-.47,1.9.19,2.71.77,3.41,1.45,1.77,1.42,4.04,1.42,4.04,0,0-.52-1.3-.54-1.36-.09-.23-.21-.46-.35-.69-.28-.46-.67-.91-1.08-1.41-.21-.25-.43-.51-.64-.79-.21-.29-.42-.6-.61-.96-.18-.36-.33-.77-.39-1.21v-.08s-.02-.08-.02-.08c0-.06-.01-.11-.01-.17,0-.06,0-.11,0-.17v-.17c.02-.22.05-.44.08-.65.08-.42.18-.8.25-1.15.02-.09.03-.17.05-.26.01-.09.02-.17.03-.26v-.13s.02-.09.02-.13c0-.09,0-.17,0-.26,0-.7-.14-1.44-.38-2.2-.05-.19-.13-.38-.19-.57-.04-.1-.07-.19-.11-.29-.04-.1-.07-.19-.11-.29-.01-.04-.03-.07-.04-.11-.07-.17-.27-.65-.33-.8-.04-.1-.08-.2-.12-.29-.09-.21-.17-.41-.26-.62-.04-.11-.09-.21-.13-.32-.04-.11-.09-.21-.13-.33-.18-.45-.33-.92-.46-1.4-.13-.48-.24-.98-.31-1.5-.02-.17-.04-.34-.05-.51-.12-1.06-.03-2.15.47-3.19l.07-.1c.18-.37.42-.73.69-1.05,0,0,0,0,0-.01.08-.17.17-.34.24-.52.03-.09.07-.17.11-.26l.09-.27s.03-.09.04-.14l.04-.14c.02-.09.05-.19.07-.28l.06-.29s.02-.1.03-.14l.02-.15c.01-.1.03-.2.05-.3l.03-.3s.01-.1.02-.15v-.15c.02-.1.02-.2.03-.31.04-.83,0-1.68-.07-2.56-.07-.88-.18-1.78-.27-2.7-.1-.92-.19-1.87-.21-2.85-.02-.49,0-.99.01-1.49,0-.13.02-.25.03-.38,0-.06,0-.13.01-.19l.02-.19c.01-.13.03-.26.04-.38.02-.11.03-.21.05-.32-.43.22-.88.41-1.34.56-.8.26-1.6.41-2.39.48-.79.07-1.56.06-2.31.03-.22-.01-.45-.03-.67-.04l-.09.02c-.05.01-.1.03-.15.05-.1.03-.2.07-.3.1-.1.04-.2.08-.29.12-.1.04-.2.08-.29.12-.09.05-.19.09-.28.13-.05.02-.09.05-.14.07l-.14.08-.14.08s-.09.05-.13.08c-.09.06-.18.11-.26.17-.09.05-.17.12-.26.18-.08.06-.17.12-.25.18-.08.07-.16.13-.24.2l-.12.1s-.08.07-.11.1c-.07.07-.15.14-.22.21-.07.07-.14.15-.21.22l-.1.11-.05.05s-.03.04-.05.06c-.06.08-.13.15-.19.23-.03.04-.07.07-.1.12l-.09.12c-.06.08-.12.16-.18.24-.05.08-.11.17-.16.25-.05.08-.11.16-.15.25-.3.51-.53,1.09-.77,1.67-.05.33-.08.66-.08.99,0,.21.02.41.04.61.03.21.06.41.09.63.03.21.05.43.06.65,0,.22,0,.45-.06.68-.05.23-.15.45-.29.64-.07.1-.15.18-.23.25-.08.07-.16.14-.25.2-.16.12-.32.22-.45.32-.07.05-.13.1-.18.16-.03.03-.05.05-.08.09-.02.03-.05.06-.07.09-.08.13-.15.27-.2.41-.04.15-.07.3-.09.46-.04.31-.04.63-.05.94-.01.31-.03.61-.09.89-.06.28-.15.54-.26.76-.22.45-.51.77-.78,1-.26.23-.5.36-.66.44-.08.04-.14.06-.19.08-.04.02-.06.02-.06.03,0,0,.02-.01.06-.03.04-.02.1-.05.18-.1.15-.09.37-.25.6-.49.23-.24.48-.57.65-1.01.09-.22.15-.46.19-.72.03-.26.03-.54.02-.84,0-.3-.03-.62-.01-.97,0-.17.03-.36.07-.54.05-.18.12-.37.22-.55.03-.04.06-.09.09-.13.03-.04.06-.08.1-.12.07-.08.14-.15.22-.21.15-.13.31-.24.45-.35.14-.11.26-.23.35-.36.09-.13.15-.28.18-.44.06-.33.02-.72-.05-1.12-.03-.2-.07-.41-.11-.63,0-.05-.01-.11-.02-.16-.03.05-.05.1-.08.15-.21.37-.46.73-.76,1.05l-.05.06s-.04.04-.06.06l-.12.11c-.08.08-.16.14-.25.21-.17.13-.35.25-.53.35-.36.21-.73.36-1.09.49-.72.25-1.41.4-2.03.58-.63.18-1.2.39-1.68.69-.24.15-.45.32-.64.51-.19.19-.35.4-.5.62-.29.44-.51.9-.72,1.34-.2.44-.39.86-.59,1.24-.2.38-.41.71-.62.98-.43.56-.88.89-1.21,1.05-.08.04-.16.07-.22.1-.03.01-.06.03-.09.03-.03,0-.05.02-.08.02-.09.03-.13.04-.13.04,0,0,.04-.02.13-.06.02,0,.05-.02.07-.03.03-.01.05-.03.08-.04.06-.03.13-.07.21-.12.3-.19.7-.55,1.06-1.12.18-.28.35-.62.51-1,.16-.38.31-.81.47-1.27.17-.46.36-.96.64-1.47.14-.25.31-.51.52-.75.2-.24.45-.47.71-.66.54-.39,1.17-.67,1.82-.9.65-.23,1.32-.42,1.95-.68.63-.26,1.22-.6,1.65-1.11.44-.51.74-1.17,1.02-1.91.14-.37.28-.76.43-1.16.08-.2.16-.4.25-.61.09-.21.2-.41.3-.61.05-.1.11-.2.17-.3.06-.1.12-.2.18-.3l.2-.29.1-.14s.07-.09.11-.14c.07-.09.15-.18.22-.27.02-.02.04-.05.06-.07l.06-.07.12-.13c.08-.09.16-.18.24-.26.08-.08.17-.17.26-.25.04-.04.08-.08.13-.12l.14-.12c.09-.08.18-.16.27-.23.09-.07.19-.15.29-.22.1-.07.19-.15.29-.21.09-.06.18-.12.27-.18-.98-.11-1.93-.19-2.84-.2-1.27-.02-2.48.15-3.54.58-.26.1-.54.24-.85.37-.31.13-.66.27-1.05.35-.2.04-.41.06-.62.05-.21,0-.42-.04-.62-.09-.39-.11-.71-.27-.99-.43-.28-.16-.53-.32-.76-.44-.12-.06-.23-.13-.36-.18-.06-.03-.12-.06-.18-.08-.06-.03-.12-.05-.18-.08-.49-.2-.99-.34-1.5-.43-.23-.04-.46-.07-.69-.08-.18.12-.34.27-.48.44-.12.15-.23.32-.32.5-.09.18-.17.36-.23.55-.12.37-.19.77-.24,1.17-.05.4-.07.8-.11,1.2-.02.2-.04.4-.07.59-.03.2-.06.39-.11.58-.09.38-.21.74-.36,1.08-.3.67-.68,1.23-1.09,1.69-.41.46-.85.8-1.26,1.07-.2.13-.4.24-.58.34-.18.1-.34.19-.47.28-.28.18-.47.35-.58.49-.03.03-.05.06-.07.09-.02.03-.04.05-.05.07-.02.03-.04.05-.04.05,0,0,.01-.02.03-.06.01-.02.02-.05.04-.07.02-.03.04-.06.06-.1.1-.14.28-.34.55-.55.13-.11.29-.22.45-.33.17-.12.35-.24.54-.38.37-.28.76-.65,1.12-1.11.36-.46.68-1.01.92-1.65.12-.32.21-.65.28-1.01.03-.18.06-.36.08-.54.02-.19.03-.38.04-.57.02-.39.04-.8.07-1.22.02-.21.04-.43.08-.65.04-.22.09-.44.15-.66.07-.22.16-.44.26-.65.11-.21.23-.42.39-.62,0,0,.01-.01.02-.02-.43.03-.86.09-1.26.19-.92.21-1.77.66-2.65,1.01-.44.17-.89.32-1.35.41-.23.04-.46.07-.69.07-.23,0-.45,0-.66-.02-.42-.04-.82-.11-1.19-.19-.37-.08-.72-.15-1.06-.22-.34-.06-.65-.11-.96-.13-.3-.02-.59-.01-.86.03-.53.09-.97.33-1.28.62-.31.29-.52.6-.68.85-.16.25-.27.45-.34.59-.07.13-.11.2-.11.2,0,0,.03-.08.09-.21.06-.14.15-.35.29-.62.14-.27.32-.6.63-.94.04-.04.08-.08.12-.12.04-.04.09-.08.13-.12.05-.04.1-.08.15-.12.05-.04.11-.07.16-.11.23-.14.49-.25.78-.33.29-.08.61-.11.93-.11.33,0,.67.02,1.02.06.35.04.71.09,1.08.14.37.05.75.08,1.13.09.19,0,.39,0,.58-.03.19-.02.38-.06.58-.1.39-.1.78-.26,1.18-.45.4-.19.81-.41,1.26-.63.22-.11.45-.22.69-.32.06-.02.12-.05.18-.08.06-.02.13-.05.19-.07.06-.02.13-.05.19-.07.06-.02.13-.04.19-.06,1.04-.32,2.2-.45,3.39-.31.58.07,1.17.19,1.75.39l1.99.77c.17.1.38.16.64.2.14.02.3.04.46.04.19-.05.39-.14.62-.25.26-.13.55-.29.87-.43.64-.29,1.33-.5,2.02-.64.09-.02.18-.03.26-.05.09-.01.18-.03.26-.04.18-.03.35-.04.53-.07.18-.01.35-.03.53-.04.09,0,.18,0,.27-.01h.13s.13,0,.13,0c1.42-.04,2.83.1,4.22.21.7.05,1.39.11,2.08.12.54.01,1.08,0,1.61-.03,0,0,0,0-.01,0,.12,0,.25-.01.37-.04.08,0,.17-.01.25-.02.24-.03.48-.07.71-.12.18-.03.37-.07.55-.13.07-.01.13-.03.2-.05,0,0,0,0,.01,0,.1-.03.2-.06.3-.09.62-.21,1.22-.52,1.78-.89l.05-.03.05-.04.1-.07c.07-.05.14-.1.2-.15l.2-.16s.07-.05.1-.08l.09-.08.19-.17.18-.18s.05-.05.07-.07c.03-.06.07-.13.1-.19.06-.12.12-.24.19-.35l.2-.34.1-.17.11-.17.22-.33c.07-.11.15-.21.23-.32.15-.22.31-.42.47-.62.08-.1.16-.2.25-.3.08-.1.17-.2.25-.3l.1-.11h1.95c0,.46,0,1.06,0,1.53Z"/>
      <path class="cls-1" d="M92.07,152.27s-.1-.01-.18-.03c-.15-.04-.39-.12-.62-.34-.11-.11-.22-.25-.32-.41-.1-.16-.2-.33-.32-.5-.24-.35-.53-.75-.87-1.15-.17-.19-.37-.38-.59-.5-.22-.12-.49-.16-.8-.16-.15,0-.31,0-.47.01-.08,0-.17,0-.26,0-.09,0-.18,0-.27,0-.18,0-.36-.03-.55-.06-.09-.02-.18-.04-.27-.06-.05-.01-.09-.02-.14-.03-.05-.01-.09-.03-.14-.04-.37-.1-.72-.26-1.07-.46-.04-.03-.09-.05-.13-.08-.04-.03-.09-.05-.13-.08-.08-.06-.17-.12-.25-.17-.08-.06-.16-.13-.24-.19-.04-.03-.08-.06-.12-.1l-.11-.11s-.02-.02-.03-.03c-.03-.38-.06-1.09-.04-1.07.06.08.11.15.16.22.12.14.23.28.37.41l.1.1s.07.06.1.09c.07.06.13.12.21.17.07.05.14.11.21.16.03.03.07.05.11.07.04.02.07.05.11.07.3.18.61.34.93.45.04.01.08.03.12.04.04.01.08.02.12.03.08.02.16.04.24.06.16.03.32.07.48.08.08,0,.16.02.24.02.08,0,.16,0,.24,0,.16,0,.33,0,.5.02.17.01.34.03.5.08.17.04.33.11.47.2.29.18.49.41.66.64.33.45.59.87.79,1.25.1.19.19.37.27.54s.16.3.26.41c.19.22.41.33.55.38.07.03.13.04.17.05.04,0,.06.01.06.01,0,0-.02,0-.06,0Z"/>
      <path class="cls-1" d="M76.48,142.47c-.07.28-.06.42-.05.56,0,.21.05.44.12.67.06.23.15.48.22.73.08.25.15.52.19.79,0,.07.02.14.02.21,0,.07.01.14.01.21,0,.07,0,.14,0,.2,0,.07,0,.13-.01.2-.02.26-.07.51-.13.75-.03.12-.07.23-.1.34-.04.11-.07.22-.11.32-.16.42-.33.8-.48,1.15-.08.18-.14.35-.21.52-.06.16-.11.32-.16.48-.08.32-.13.62-.15.91-.01.28,0,.54.05.77.09.46.29.78.46.96.08.09.16.16.21.2.05.04.08.06.08.06,0,0-.03-.02-.09-.05-.06-.03-.14-.08-.24-.17-.1-.08-.22-.2-.33-.35-.11-.16-.22-.36-.3-.59-.16-.48-.23-1.11-.13-1.82.03-.18.06-.36.11-.55.05-.18.1-.37.16-.56.11-.38.24-.77.35-1.17.03-.1.05-.2.08-.31.02-.1.04-.21.06-.31.04-.21.05-.42.05-.63,0-.05,0-.1,0-.16,0-.05,0-.1-.01-.16,0-.05-.02-.1-.02-.15,0-.05-.02-.1-.03-.15-.05-.21-.12-.42-.21-.65-.09-.23-.19-.47-.29-.74-.09-.27-.18-.56-.22-.89-.02-.16-.02-.33-.01-.49,0-.08.01-.16.02-.25.01-.08.02-.16.04-.24.06-.32.17-.63.3-.92.05-.11.1-.22.15-.32-.17.09-.34.17-.51.23-.15.05-.3.1-.45.13-.15.04-.3.07-.44.09-.29.05-.58.08-.85.12-.55.07-1.07.14-1.52.33-.11.05-.21.1-.31.16-.1.06-.19.13-.27.21-.16.15-.3.34-.42.55-.12.21-.24.43-.38.65-.03.06-.07.11-.11.16-.04.05-.08.11-.12.16-.04.05-.09.1-.13.15-.04.05-.08.1-.13.14-.36.36-.78.63-1.2.81-.43.18-.87.28-1.29.31-.42.03-.83-.01-1.19-.11-.09-.02-.18-.05-.27-.08-.04-.02-.09-.03-.13-.05-.04-.02-.08-.03-.12-.05-.16-.07-.3-.13-.44-.14-.14-.02-.27.01-.39.08-.12.07-.23.16-.32.25-.2.18-.35.38-.48.56-.25.37-.38.7-.45.92-.02.06-.03.11-.04.15-.01.04-.02.08-.03.11-.01.05-.02.08-.02.09,0,0,0-.04.01-.09,0-.03,0-.07.02-.11,0-.04.02-.1.03-.15.05-.23.15-.58.38-.97.12-.2.26-.41.46-.61.1-.1.2-.21.34-.3.07-.04.15-.08.23-.11.09-.03.18-.03.27-.03.18.01.35.07.51.13.04.01.08.03.12.04.04.01.08.02.12.03.08.02.16.05.25.06.34.07.71.09,1.1.04.38-.05.77-.16,1.15-.34.37-.18.73-.44,1.03-.76.04-.04.07-.08.11-.13.03-.04.07-.09.11-.13.03-.05.06-.09.09-.14.03-.05.06-.09.09-.14.12-.2.22-.42.35-.66.06-.12.13-.23.21-.35.08-.12.18-.23.28-.34.11-.1.22-.2.34-.28.12-.08.25-.16.39-.22.13-.06.27-.11.41-.16.14-.04.28-.08.42-.11.28-.06.56-.11.84-.15.55-.08,1.11-.16,1.6-.34.49-.18.92-.51,1.31-.93.22-.24.43-.51.63-.79.05-.1.09-.19.13-.29.05-.12.09-.25.13-.38.15-.51.21-1.08.19-1.66-.01-.37-.06-.76-.12-1.14.37.64,1.04,1.07,1.47,1.6-.03.54-.12,1.08-.29,1.6-.05.17-.12.33-.19.49-.07.16-.15.31-.23.46-.16.29-.33.56-.5.81-.15.22-.29.43-.42.63-.16.34-.42.75-.61,1.12"/>
      <path class="cls-1" d="M82.5,129.36s-5.55.82-5.09,5.96c.46,5.14,1.47,2.14,1.47,1.6,0-1.91,0-5.53,3.42-5.37,4.18.2.2-2.2.2-2.2Z"/>
      <path class="cls-1" d="M34.43,105.08c-.1-.91.12-1.51.12-1.51,0,0,.85.16,1.45.77.92.93.56,1.99.33,2.44-.07-.31-.21-.8-.36-1.14-.46-.99-.95-1.34-.95-1.34,0,0,.4.41.84,1.4.15.34.31.82.41,1.11-.49-.08-1.69-.31-1.84-1.74Z"/>
    </g>
  </g>
  <g>
    <path class="cls-1" d="M157.7,103.57c1.04-.63,1.88-.71,1.88-.71,0,0,.28,1.12-.11,2.17-.61,1.62-2.08,1.79-2.74,1.76.33-.26.85-.7,1.16-1.07.93-1.1,1.07-1.88,1.07-1.88,0,0-.27.71-1.21,1.8-.32.37-.81.83-1.1,1.12-.18-.63-.57-2.2,1.05-3.18Z"/>
    <g>
      <path class="cls-1" d="M105.43,162.18c-.94.41-1.65.39-1.65.39,0,0-.11-.96.33-1.8.68-1.29,1.94-1.27,2.48-1.18-.3.18-.78.49-1.09.77-.9.82-1.1,1.46-1.1,1.46,0,0,.31-.56,1.21-1.37.31-.28.77-.6,1.04-.81.08.54.24,1.91-1.23,2.55Z"/>
      <path class="cls-1" d="M156.61,128.85c1.05,1.38,2.12,1.92,2.12,1.92,0,0,.96-1.33.99-2.94.05-2.47-1.82-3.46-2.71-3.77.3.52.76,1.37.98,2.03.66,1.95.43,3.06.43,3.06,0,0,0-1.08-.67-3.02-.23-.66-.64-1.52-.87-2.06-.57.74-1.91,2.62-.27,4.77Z"/>
      <path class="cls-1" d="M147.09,141.18c1.55.06,2.54-.36,2.54-.36,0,0-.37-1.42-1.46-2.36-1.68-1.44-3.43-.72-4.15-.29.53.09,1.38.26,1.96.49,1.72.67,2.36,1.45,2.36,1.45,0,0-.74-.63-2.47-1.27-.59-.22-1.42-.43-1.92-.57.19.81.72,2.82,3.14,2.92Z"/>
      <path class="cls-1" d="M143.82,136.92c1.06.04,1.74-.25,1.74-.25,0,0-.25-.97-1-1.62-1.15-.99-2.35-.5-2.84-.2.36.06.94.18,1.34.33,1.18.46,1.62.99,1.62.99,0,0-.51-.43-1.69-.87-.4-.15-.97-.29-1.31-.39.13.56.49,1.93,2.15,2Z"/>
      <path class="cls-1" d="M147.49,127.66c1.06.04,1.74-.25,1.74-.25,0,0-.25-.97-1-1.62-1.15-.99-2.35-.5-2.84-.2.36.06.94.18,1.34.33,1.18.46,1.62.99,1.62.99,0,0-.51-.43-1.69-.87-.4-.15-.97-.29-1.31-.39.13.56.49,1.93,2.15,2Z"/>
      <path class="cls-1" d="M137.71,139.2c1.06.04,1.74-.25,1.74-.25,0,0-.25-.97-1-1.62-1.15-.99-2.35-.5-2.84-.2.36.06.94.18,1.34.33,1.18.46,1.62.99,1.62.99,0,0-.51-.43-1.69-.87-.4-.15-.97-.29-1.31-.39.13.56.49,1.93,2.15,2Z"/>
      <path class="cls-1" d="M129.26,133.91c-.14,1.21.14,2,.14,2,0,0,1.13-.21,1.93-1,1.22-1.23.76-2.63.46-3.22-.1.41-.28,1.06-.49,1.5-.62,1.31-1.27,1.76-1.27,1.76,0,0,.53-.54,1.13-1.85.2-.44.42-1.08.56-1.46-.64.1-2.24.4-2.46,2.28Z"/>
      <path class="cls-1" d="M137.76,135.14c.57.71,1.13.98,1.13.98,0,0,.49-.71.49-1.55,0-1.29-.99-1.79-1.46-1.95.16.27.41.71.54,1.05.37,1.02.26,1.6.26,1.6,0,0,0-.57-.38-1.58-.13-.34-.35-.79-.48-1.07-.29.39-.97,1.4-.09,2.5Z"/>
      <path class="cls-1" d="M140.72,129.57c-.18,1.52.17,2.52.17,2.52,0,0,1.43-.26,2.43-1.27,1.54-1.55.96-3.32.59-4.07-.13.51-.36,1.34-.62,1.9-.78,1.65-1.6,2.22-1.6,2.22,0,0,.67-.69,1.43-2.33.26-.56.53-1.36.7-1.85-.81.12-2.83.5-3.1,2.87Z"/>
      <path class="cls-1" d="M150.44,125.06c-.18,1.52.17,2.52.17,2.52,0,0,1.43-.26,2.43-1.27,1.54-1.55.96-3.32.59-4.07-.13.51-.36,1.34-.62,1.9-.78,1.65-1.6,2.22-1.6,2.22,0,0,.67-.69,1.43-2.33.26-.56.53-1.36.7-1.85-.81.12-2.83.5-3.1,2.87Z"/>
      <path class="cls-1" d="M125.71,126.03c.82,1.14,1.68,1.61,1.68,1.61,0,0,.81-1.06.87-2.36.09-2.01-1.4-2.85-2.11-3.13.23.43.58,1.13.75,1.67.49,1.6.28,2.5.28,2.5,0,0,.03-.88-.47-2.47-.17-.54-.49-1.25-.66-1.69-.48.59-1.61,2.09-.33,3.87Z"/>
      <path class="cls-1" d="M120,150.13c1.04.63,1.88.7,1.88.7,0,0,.28-1.12-.11-2.17-.61-1.62-2.08-1.78-2.74-1.76.33.26.85.7,1.16,1.07.93,1.1,1.07,1.88,1.07,1.88,0,0-.27-.71-1.21-1.8-.32-.37-.81-.83-1.1-1.11-.18.63-.57,2.2,1.05,3.18Z"/>
      <path class="cls-1" d="M116.37,159.95c.81.91,1.58,1.23,1.58,1.23,0,0,.6-.98.54-2.1-.1-1.73-1.46-2.32-2.09-2.49.24.35.6.92.79,1.37.56,1.33.46,2.12.46,2.12,0,0-.05-.76-.62-2.08-.19-.45-.53-1.03-.72-1.39-.36.55-1.2,1.93.06,3.35Z"/>
      <path class="cls-1" d="M137.41,116.11c1.12-.62,2-.66,2-.66,0,0,.25,1.18-.21,2.27-.71,1.68-2.26,1.79-2.95,1.73.36-.26.92-.7,1.27-1.08,1.03-1.12,1.21-1.93,1.21-1.93,0,0-.32.73-1.35,1.84-.35.38-.89.84-1.2,1.13-.16-.67-.51-2.34,1.24-3.3Z"/>
      <path class="cls-1" d="M109.98,145.71c-1.2-.18-2,.08-2,.08,0,0,.17,1.14.94,1.96,1.19,1.26,2.61.84,3.21.57-.4-.11-1.05-.32-1.49-.54-1.29-.66-1.72-1.32-1.72-1.32,0,0,.53.55,1.81,1.19.44.22,1.07.45,1.45.6-.08-.65-.33-2.25-2.2-2.53Z"/>
      <path class="cls-1" d="M113.91,152.71c-1.21.05-1.99-.28-1.99-.28,0,0,.28-1.11,1.14-1.85,1.31-1.13,2.68-.58,3.25-.24-.41.07-1.08.21-1.53.39-1.35.53-1.84,1.14-1.84,1.14,0,0,.58-.49,1.92-1,.46-.17,1.11-.34,1.5-.45-.14.64-.55,2.21-2.44,2.29Z"/>
      <path class="cls-1" d="M108.34,156.13c.42,1.14,1.03,1.72,1.03,1.72,0,0,.91-.7,1.26-1.77.53-1.65-.52-2.69-1.05-3.08.09.41.23,1.07.24,1.56.04,1.44-.33,2.14-.33,2.14,0,0,.23-.73.17-2.16-.02-.49-.12-1.15-.17-1.56-.53.38-1.82,1.37-1.15,3.15Z"/>
      <path class="cls-1" d="M142.13,118.45c.59-.61.77-1.17.77-1.17,0,0-.72-.36-1.5-.25-1.2.17-1.53,1.15-1.62,1.6.23-.18.6-.47.91-.63.89-.47,1.45-.45,1.45-.45,0,0-.53.08-1.41.55-.3.16-.69.43-.93.58.4.22,1.42.72,2.33-.23Z"/>
      <path class="cls-1" d="M133.73,124.19c.84.55,1.53.64,1.53.64,0,0,.27-.91-.03-1.79-.45-1.36-1.66-1.54-2.2-1.54.26.23.68.6.93.92.73.94.83,1.59.83,1.59,0,0-.2-.59-.94-1.52-.25-.32-.64-.71-.87-.95-.17.51-.54,1.8.77,2.65Z"/>
      <path class="cls-1" d="M104.12,156.29c-.43,1.19-.34,2.06-.34,2.06,0,0,1.2.06,2.2-.55,1.54-.95,1.41-2.49,1.25-3.16-.2.39-.54,1.01-.86,1.41-.94,1.18-1.71,1.48-1.71,1.48,0,0,.67-.42,1.6-1.61.32-.4.68-1,.92-1.35-.68-.06-2.37-.14-3.05,1.72Z"/>
      <path class="cls-1" d="M113.13,161.03c.07,1.04.43,1.66.43,1.66,0,0,.92-.35,1.46-1.15.84-1.22.22-2.34-.12-2.79-.02.36-.07.94-.18,1.34-.31,1.2-.79,1.68-.79,1.68,0,0,.36-.54.66-1.74.1-.41.18-.98.24-1.32-.53.18-1.82.69-1.71,2.31Z"/>
      <path class="cls-1" d="M127.16,136.78c.94.64,1.32,1.32,1.32,1.32,0,0-.84.67-1.89.74-1.61.11-2.32-1.08-2.56-1.65.35.18.92.45,1.36.58,1.3.37,2.02.19,2.02.19,0,0-.71.04-2-.34-.44-.13-1.02-.37-1.37-.51.46-.39,1.66-1.33,3.11-.33Z"/>
      <path class="cls-1" d="M108.59,161.46c-.49,1.03-.48,1.81-.48,1.81,0,0,1.06.16,2.01-.31,1.45-.71,1.47-2.1,1.38-2.71-.21.33-.57.85-.89,1.18-.94.97-1.65,1.17-1.65,1.17,0,0,.63-.32,1.56-1.29.32-.33.69-.83.94-1.13-.6-.11-2.1-.33-2.86,1.27Z"/>
      <path class="cls-1" d="M105.81,148.96c-1.44-.37-2.45-.17-2.45-.17,0,0,.06,1.41.89,2.51,1.28,1.69,3.07,1.37,3.83,1.11-.48-.19-1.24-.53-1.74-.86-1.48-.97-1.92-1.84-1.92-1.84,0,0,.57.74,2.05,1.69.51.32,1.24.69,1.68.93,0-.8-.1-2.79-2.35-3.37Z"/>
      <path class="cls-1" d="M149.68,134.62c.93.78,1.75.99,1.75.99,0,0,.45-1.06.22-2.16-.35-1.7-1.78-2.08-2.43-2.16.28.31.73.82.98,1.24.75,1.23.77,2.03.77,2.03,0,0-.16-.74-.92-1.96-.26-.42-.67-.94-.92-1.27-.27.59-.9,2.09.55,3.31Z"/>
      <path class="cls-1" d="M145.46,132.79c.11,1.21.54,1.93.54,1.93,0,0,1.07-.43,1.68-1.37.95-1.45.21-2.73-.2-3.25-.02.42-.06,1.1-.18,1.57-.34,1.4-.89,1.98-.89,1.98,0,0,.41-.64.73-2.04.11-.48.19-1.14.25-1.55-.61.23-2.11.84-1.95,2.73Z"/>
      <path class="cls-1" d="M159.85,120.68c1.44-.06,2.35.33,2.35.33,0,0-.34,1.32-1.35,2.19-1.55,1.34-3.17.68-3.84.28.49-.09,1.28-.25,1.82-.46,1.59-.62,2.18-1.35,2.18-1.35,0,0-.69.58-2.28,1.18-.54.2-1.31.4-1.77.54.17-.75.66-2.61,2.89-2.71Z"/>
      <g>
        <path class="cls-1" d="M140.66,150.38c1.13.45,1.97.38,1.97.38,0,0,.09-1.15-.47-2.12-.87-1.5-2.35-1.42-2.99-1.28.37.2.95.55,1.32.86,1.1.93,1.37,1.68,1.37,1.68,0,0-.39-.65-1.5-1.57-.38-.31-.94-.68-1.27-.92-.07.65-.2,2.27,1.57,2.96Z"/>
        <path class="cls-1" d="M127.02,144.74c.27,1.19.79,1.84.79,1.84,0,0,1-.57,1.49-1.58.75-1.56-.15-2.74-.62-3.19.04.42.08,1.09.03,1.58-.15,1.44-.62,2.08-.62,2.08,0,0,.32-.69.46-2.12.05-.49.04-1.16.04-1.57-.58.31-1.98,1.11-1.57,2.96Z"/>
        <path class="cls-1" d="M121.31,154.28c-.39,1.15-.28,1.98-.28,1.98,0,0,1.15.03,2.09-.58,1.45-.94,1.29-2.42,1.13-3.05-.18.38-.5.98-.8,1.37-.88,1.15-1.61,1.46-1.61,1.46,0,0,.63-.42,1.49-1.57.29-.39.63-.97.85-1.32-.65-.04-2.27-.08-2.88,1.72Z"/>
        <path class="cls-1" d="M129.04,150.62c.56.85.66,1.54.66,1.54,0,0-.92.28-1.82-.02-1.38-.45-1.57-1.68-1.57-2.23.23.26.61.68.94.93.96.74,1.61.83,1.61.83,0,0-.6-.2-1.55-.95-.32-.25-.72-.65-.97-.88.52-.17,1.82-.55,2.7.77Z"/>
        <path class="cls-1" d="M136.29,150.34c.59,1.06,1.27,1.55,1.27,1.55,0,0,.8-.82.99-1.93.29-1.71-.91-2.59-1.49-2.9.15.39.38,1.03.47,1.51.25,1.42-.02,2.17-.02,2.17,0,0,.12-.75-.15-2.16-.09-.48-.29-1.12-.39-1.52-.47.45-1.6,1.62-.68,3.28Z"/>
        <path class="cls-1" d="M130.71,148.84c.59,1.06,1.27,1.55,1.27,1.55,0,0,.8-.82.99-1.93.29-1.71-.91-2.59-1.49-2.9.15.39.38,1.03.47,1.51.25,1.42-.02,2.17-.02,2.17,0,0,.12-.75-.15-2.16-.09-.48-.29-1.12-.39-1.52-.47.45-1.6,1.62-.68,3.28Z"/>
        <path class="cls-1" d="M122.49,158.13c-.04,1.21.3,1.98.3,1.98,0,0,1.11-.3,1.84-1.16,1.12-1.32.54-2.69.2-3.25-.07.41-.19,1.08-.37,1.54-.51,1.35-1.12,1.86-1.12,1.86,0,0,.48-.59.97-1.94.17-.46.33-1.11.43-1.5-.63.15-2.2.58-2.26,2.47Z"/>
        <path class="cls-1" d="M129.06,154.94c.54,1.44.45,2.49.45,2.49,0,0-1.45.09-2.67-.64-1.88-1.13-1.74-3-1.56-3.81.25.47.67,1.21,1.07,1.69,1.16,1.41,2.1,1.77,2.1,1.77,0,0-.82-.5-1.96-1.92-.39-.48-.84-1.2-1.13-1.62.82-.08,2.87-.2,3.71,2.04Z"/>
        <path class="cls-1" d="M134.27,140.07c1.38.39,2.13,1.05,2.13,1.05,0,0-.73,1.15-1.96,1.66-1.89.79-3.23-.35-3.74-.93.49.07,1.29.16,1.87.13,1.71-.09,2.49-.6,2.49-.6,0,0-.83.34-2.53.41-.58.03-1.37-.03-1.85-.04.4-.66,1.44-2.28,3.6-1.67Z"/>
        <path class="cls-1" d="M140.62,143.07c1.44.02,2.33.47,2.33.47,0,0-.41,1.3-1.47,2.11-1.62,1.25-3.21.49-3.85.06.49-.06,1.29-.17,1.84-.35,1.63-.53,2.26-1.22,2.26-1.22,0,0-.72.54-2.34,1.05-.55.17-1.33.32-1.8.43.21-.74.81-2.57,3.05-2.54Z"/>
      </g>
      <path class="cls-1" d="M165.56,109.17c1.19-.32,2.03-.16,2.03-.16,0,0-.04,1.17-.72,2.09-1.05,1.41-2.53,1.16-3.17.96.39-.16,1.02-.45,1.44-.72,1.22-.82,1.58-1.54,1.58-1.54,0,0-.47.62-1.69,1.42-.42.27-1.02.58-1.39.78,0-.66.06-2.31,1.92-2.82Z"/>
      <path class="cls-1" d="M151.41,113.27c.4-1.15.99-1.74.99-1.74,0,0,.93.68,1.3,1.74.57,1.63-.46,2.7-.98,3.11.08-.41.2-1.08.21-1.57,0-1.44-.38-2.13-.38-2.13,0,0,.24.72.22,2.16,0,.49-.09,1.16-.13,1.56-.54-.37-1.85-1.33-1.23-3.12Z"/>
      <path class="cls-1" d="M154.08,107.65c.65-.78.82-1.46.82-1.46,0,0-.89-.38-1.81-.19-1.42.29-1.74,1.49-1.81,2.04.26-.24.69-.61,1.04-.82,1.03-.63,1.7-.64,1.7-.64,0,0-.62.14-1.64.77-.35.22-.79.56-1.06.77.49.23,1.75.75,2.77-.46Z"/>
      <path class="cls-1" d="M161.25,108.74c.7-.99,1.44-1.4,1.44-1.4,0,0,.71.91.77,2.03.09,1.73-1.19,2.47-1.8,2.71.2-.37.5-.98.63-1.45.41-1.39.23-2.16.23-2.16,0,0,.03.76-.39,2.13-.14.47-.41,1.08-.56,1.46-.41-.5-1.41-1.79-.31-3.34Z"/>
      <path class="cls-1" d="M155.54,109.6c.7-.99,1.44-1.4,1.44-1.4,0,0,.71.91.77,2.03.09,1.73-1.19,2.47-1.8,2.71.2-.37.5-.98.63-1.45.41-1.39.23-2.16.23-2.16,0,0,.03.76-.39,2.13-.14.47-.41,1.08-.56,1.46-.41-.5-1.41-1.79-.31-3.34Z"/>
      <path class="cls-1" d="M158.1,118.72c1.42-.23,2.23-.8,2.23-.8,0,0-.6-1.22-1.76-1.87-1.79-1-3.24-.02-3.82.51.5-.02,1.3-.02,1.87.08,1.69.28,2.41.88,2.41.88,0,0-.79-.43-2.47-.69-.57-.09-1.37-.12-1.85-.16.32.7,1.17,2.42,3.39,2.06Z"/>
      <path class="cls-1" d="M164.69,116.55c1.46.14,2.4-.21,2.4-.21,0,0-.27-1.36-1.25-2.3-1.5-1.45-3.18-.86-3.89-.49.49.11,1.28.32,1.82.56,1.58.72,2.14,1.49,2.14,1.49,0,0-.67-.63-2.25-1.32-.54-.24-1.31-.48-1.77-.64.13.77.52,2.69,2.79,2.91Z"/>
      <path class="cls-1" d="M146.32,118.46c.09-.15.18-.29.28-.43.08-.12.17-.23.26-.34.63-.69,1.21-1.37,1.57-1.93.3-.47.29-.63.3-1.07,0-.14,0-.28-.01-.43,0-.43-.06-.88-.22-1.32-.02-.16-.04-.32-.05-.49,0-.07,0-.14,0-.21,0-.07,0-.14.01-.21,0-.07.02-.13.02-.2,0-.07.02-.13.03-.2.05-.26.13-.5.22-.73.04-.11.09-.22.14-.33.05-.1.1-.21.15-.31.2-.4.41-.76.6-1.09.1-.17.18-.33.27-.49.08-.16.15-.31.21-.46.12-.31.2-.6.25-.88.04-.28.06-.54.04-.77-.04-.47-.2-.81-.35-1.01-.07-.1-.14-.17-.19-.22-.05-.05-.07-.07-.07-.07,0,0,.03.02.08.06.05.04.13.1.22.19.09.09.19.22.29.39.09.17.18.38.23.62.11.49.1,1.12-.08,1.82-.05.17-.1.35-.17.53-.07.18-.14.36-.22.54-.15.36-.33.74-.48,1.13-.04.1-.07.2-.11.3-.03.1-.07.2-.09.3-.06.2-.1.41-.12.62,0,.05-.01.1-.01.16,0,.05,0,.1,0,.16,0,.05,0,.1,0,.16,0,.05,0,.1.01.16.02.21.08.43.14.67.06.24.14.49.2.76.06.27.12.58.12.91,0,.16-.01.33-.04.49-.01.08-.03.16-.05.24-.02.08-.04.16-.07.24-.1.31-.24.61-.4.88-.06.1-.12.2-.19.3.17-.07.35-.13.54-.17.15-.04.31-.06.46-.08.15-.02.3-.03.45-.04.3-.02.58-.02.86-.02.55,0,1.08-.02,1.54-.16.11-.03.22-.08.33-.13.1-.05.2-.11.29-.18.18-.13.33-.3.48-.5.15-.19.28-.4.45-.61.04-.05.09-.1.13-.15.04-.05.09-.1.13-.14.05-.04.1-.09.14-.13.05-.04.09-.09.15-.12.4-.32.84-.54,1.29-.67.44-.13.89-.19,1.31-.17.42.02.82.1,1.17.24.09.03.17.07.26.11.04.02.08.04.12.06.04.02.08.04.11.06.15.08.29.16.42.19.14.03.27.02.39-.04.13-.05.24-.13.35-.21.22-.16.39-.33.54-.5.29-.34.45-.65.55-.87.02-.05.04-.1.06-.15.02-.04.03-.08.04-.11.02-.05.03-.08.03-.09,0,0,0,.04-.02.09,0,.03-.02.07-.03.11-.01.04-.03.09-.05.15-.08.23-.22.56-.49.93-.14.18-.31.38-.52.56-.11.09-.22.18-.37.26-.07.04-.15.07-.24.08-.09.02-.18.01-.27,0-.18-.03-.34-.11-.5-.18-.04-.02-.08-.04-.11-.06-.04-.02-.08-.03-.12-.05-.08-.03-.16-.07-.24-.09-.33-.11-.7-.17-1.08-.16-.39,0-.79.07-1.18.21-.39.14-.78.35-1.11.64-.04.03-.08.08-.12.11-.04.04-.08.08-.12.12-.04.04-.07.09-.11.13-.04.04-.07.08-.11.13-.14.19-.27.4-.42.61-.08.11-.16.22-.25.32-.09.11-.2.21-.31.3-.12.09-.24.17-.37.24-.13.07-.27.13-.41.17-.14.05-.28.08-.43.11-.14.03-.29.05-.43.07-.29.03-.57.04-.85.05-.56.02-1.12.03-1.63.16-.51.13-.97.41-1.4.78-.25.21-.49.46-.72.71-.06.09-.11.18-.16.27-.06.12-.12.24-.17.36-.18.43-.3.91-.35,1.41-.38-.36-.77-.71-1.17-1.05.08-.3.19-.6.32-.89.07-.16.16-.32.24-.47Z"/>
      <path class="cls-1" d="M113.93,115.45l.21.22c.08.08.15.17.22.25.07.09.15.17.22.26.14.17.28.34.41.52.06.09.13.18.2.26l.18.27.09.13.08.14.17.27c.05.09.1.19.15.28.05.09.11.18.15.28.09.19.19.38.26.57l.12.29.1.3.05.15s.03.1.04.15l.08.3c.03.1.05.2.07.31l.03.15c.01.05.02.1.03.16l.05.31.04.32.02.16c0,.05,0,.11.01.16l.03.32c.02.43.04.87.03,1.31,0,.88-.08,1.78-.15,2.68-.08.91-.17,1.83-.23,2.76-.06.93-.08,1.88-.02,2.84.01.12.02.24.03.36l.02.18c0,.06.01.12.02.18.02.12.03.24.05.36.02.12.04.24.06.36l.03.18c.01.06.03.12.04.18.03.12.06.24.08.36.03.12.07.24.1.36l.05.18c.02.06.04.12.06.18.04.12.08.23.13.35.04.12.1.23.14.35.09.23.21.45.33.67.01.03.03.06.04.08l.05.08.1.16.1.16c.03.05.06.11.1.16.07.1.14.2.21.3.04.05.07.1.11.15l.05.07s.03.08.05.12c.07.17.12.36.16.54.04.19.07.38.08.58.07.8-.05,1.65-.25,2.48-.1.41-.22.83-.36,1.23-.03.1-.07.21-.11.31-.04.1-.08.21-.11.31-.08.21-.15.42-.23.63-.15.42-.31.84-.45,1.27-.04.11-.07.21-.1.32-.03.11-.07.22-.1.32-.06.22-.13.44-.18.66-.14.54-.23,1.09-.27,1.65-.04.1-.02,1.01.02,1.32,0,.03,0,.07.01.1,0,.06,0,.11.02.17.01.06.02.11.03.17.02.11.04.22.06.33.03.11.05.22.08.32.12.41.25.76.33,1.09.47,1.9-.19,2.71-.77,3.41-1.45,1.77-1.42,4.04-1.42,4.04,0,0,.52-1.3.54-1.36.09-.23.21-.46.35-.69.28-.46.67-.91,1.08-1.41.21-.25.43-.51.64-.79.21-.29.42-.6.61-.96.18-.36.33-.77.39-1.21v-.08s.02-.08.02-.08c0-.06.01-.11.01-.17,0-.06,0-.11,0-.17v-.17c-.02-.22-.05-.44-.08-.65-.08-.42-.18-.8-.25-1.15-.02-.09-.03-.17-.05-.26-.01-.09-.02-.17-.03-.26v-.13s-.02-.09-.02-.13c0-.09,0-.17,0-.26,0-.7.14-1.44.38-2.2.05-.19.13-.38.19-.57.04-.1.07-.19.11-.29.04-.1.07-.19.11-.29.01-.04.03-.07.04-.11.07-.17.27-.65.33-.8.04-.1.08-.2.12-.29.09-.21.17-.41.26-.62.04-.11.09-.21.13-.32.04-.11.09-.21.13-.33.18-.45.33-.92.46-1.4.13-.48.24-.98.31-1.5.02-.17.04-.34.05-.51.12-1.06.03-2.15-.47-3.19l-.07-.1c-.18-.37-.42-.73-.69-1.05,0,0,0,0,0-.01-.08-.17-.17-.34-.24-.52-.03-.09-.07-.17-.11-.26l-.09-.27s-.03-.09-.04-.14l-.04-.14c-.02-.09-.05-.19-.07-.28l-.06-.29s-.02-.1-.03-.14l-.02-.15c-.01-.1-.03-.2-.05-.3l-.03-.3s-.01-.1-.02-.15v-.15c-.02-.1-.02-.2-.03-.31-.04-.83,0-1.68.07-2.56.07-.88.18-1.78.27-2.7.1-.92.19-1.87.21-2.85.02-.49,0-.99-.01-1.49,0-.13-.02-.25-.03-.38,0-.06,0-.13-.01-.19l-.02-.19c-.01-.13-.03-.26-.04-.38-.02-.11-.03-.21-.05-.32.43.22.88.41,1.34.56.8.26,1.6.41,2.39.48.79.07,1.56.06,2.31.03.22-.01.45-.03.67-.04l.09.02c.05.01.1.03.15.05.1.03.2.07.3.1.1.04.2.08.29.12.1.04.2.08.29.12.09.05.19.09.28.13.05.02.09.05.14.07l.14.08.14.08s.09.05.13.08c.09.06.18.11.26.17.09.05.17.12.26.18.08.06.17.12.25.18.08.07.16.13.24.2l.12.1s.08.07.11.1c.07.07.15.14.22.21.07.07.14.15.21.22l.1.11.05.05s.03.04.05.06c.06.08.13.15.19.23.03.04.07.07.1.12l.09.12c.06.08.12.16.18.24.05.08.11.17.16.25.05.08.11.16.15.25.3.51.53,1.09.77,1.67.05.33.08.66.08.99,0,.21-.02.41-.04.61-.03.21-.06.41-.09.63-.03.21-.05.43-.06.65,0,.22,0,.45.06.68.05.23.15.45.29.64.07.1.15.18.23.25.08.07.16.14.25.2.16.12.32.22.45.32.07.05.13.1.18.16.03.03.05.05.08.09.02.03.05.06.07.09.08.13.15.27.2.41.04.15.07.3.09.46.04.31.04.63.05.94.01.31.03.61.09.89.06.28.15.54.26.76.22.45.51.77.78,1,.26.23.5.36.66.44.08.04.14.06.19.08.04.02.06.02.06.03,0,0-.02-.01-.06-.03-.04-.02-.1-.05-.18-.1-.15-.09-.37-.25-.6-.49-.23-.24-.48-.57-.65-1.01-.09-.22-.15-.46-.19-.72-.03-.26-.03-.54-.02-.84,0-.3.03-.62.01-.97,0-.17-.03-.36-.07-.54-.05-.18-.12-.37-.22-.55-.03-.04-.06-.09-.09-.13-.03-.04-.06-.08-.1-.12-.07-.08-.14-.15-.22-.21-.15-.13-.31-.24-.45-.35-.14-.11-.26-.23-.35-.36-.09-.13-.15-.28-.18-.44-.06-.33-.02-.72.05-1.12.03-.2.07-.41.11-.63,0-.05.01-.11.02-.16.03.05.05.1.08.15.21.37.46.73.76,1.05l.05.06s.04.04.06.06l.12.11c.08.08.16.14.25.21.17.13.35.25.53.35.36.21.73.36,1.09.49.72.25,1.41.4,2.03.58.63.18,1.2.39,1.68.69.24.15.45.32.64.51.19.19.35.4.5.62.29.44.51.9.72,1.34.2.44.39.86.59,1.24.2.38.41.71.62.98.43.56.88.89,1.21,1.05.08.04.16.07.22.1.03.01.06.03.09.03.03,0,.05.02.08.02.09.03.13.04.13.04,0,0-.04-.02-.13-.06-.02,0-.05-.02-.07-.03-.03-.01-.05-.03-.08-.04-.06-.03-.13-.07-.21-.12-.3-.19-.7-.55-1.06-1.12-.18-.28-.35-.62-.51-1-.16-.38-.31-.81-.47-1.27-.17-.46-.36-.96-.64-1.47-.14-.25-.31-.51-.52-.75-.2-.24-.45-.47-.71-.66-.54-.39-1.17-.67-1.82-.9-.65-.23-1.32-.42-1.95-.68-.63-.26-1.22-.6-1.65-1.11-.44-.51-.74-1.17-1.02-1.91-.14-.37-.28-.76-.43-1.16-.08-.2-.16-.4-.25-.61-.09-.21-.2-.41-.3-.61-.05-.1-.11-.2-.17-.3-.06-.1-.12-.2-.18-.3l-.2-.29-.1-.14s-.07-.09-.11-.14c-.07-.09-.15-.18-.22-.27-.02-.02-.04-.05-.06-.07l-.06-.07-.12-.13c-.08-.09-.16-.18-.24-.26-.08-.08-.17-.17-.26-.25-.04-.04-.08-.08-.13-.12l-.14-.12c-.09-.08-.18-.16-.27-.23-.09-.07-.19-.15-.29-.22-.1-.07-.19-.15-.29-.21-.09-.06-.18-.12-.27-.18.98-.11,1.93-.19,2.84-.2,1.27-.02,2.48.15,3.54.58.26.1.54.24.85.37.31.13.66.27,1.05.35.2.04.41.06.62.05.21,0,.42-.04.62-.09.39-.11.71-.27.99-.43.28-.16.53-.32.76-.44.12-.06.23-.13.36-.18.06-.03.12-.06.18-.08.06-.03.12-.05.18-.08.49-.2.99-.34,1.5-.43.23-.04.46-.07.69-.08.18.12.34.27.48.44.12.15.23.32.32.5.09.18.17.36.23.55.12.37.19.77.24,1.17.05.4.07.8.11,1.2.02.2.04.4.07.59.03.2.06.39.11.58.09.38.21.74.36,1.08.3.67.68,1.23,1.09,1.69.41.46.85.8,1.26,1.07.2.13.4.24.58.34.18.1.34.19.47.28.28.18.47.35.58.49.03.03.05.06.07.09.02.03.04.05.05.07.02.03.04.05.04.05,0,0-.01-.02-.03-.06-.01-.02-.02-.05-.04-.07-.02-.03-.04-.06-.06-.1-.1-.14-.28-.34-.55-.55-.13-.11-.29-.22-.45-.33-.17-.12-.35-.24-.54-.38-.37-.28-.76-.65-1.12-1.11-.36-.46-.68-1.01-.92-1.65-.12-.32-.21-.65-.28-1.01-.03-.18-.06-.36-.08-.54-.02-.19-.03-.38-.04-.57-.02-.39-.04-.8-.07-1.22-.02-.21-.04-.43-.08-.65-.04-.22-.09-.44-.15-.66-.07-.22-.16-.44-.26-.65-.11-.21-.23-.42-.39-.62,0,0-.01-.01-.02-.02.43.03.86.09,1.26.19.92.21,1.77.66,2.65,1.01.44.17.89.32,1.35.41.23.04.46.07.69.07.23,0,.45,0,.66-.02.42-.04.82-.11,1.19-.19.37-.08.72-.15,1.06-.22.34-.06.65-.11.96-.13.3-.02.59-.01.86.03.53.09.97.33,1.28.62.31.29.52.6.68.85.16.25.27.45.34.59.07.13.11.2.11.2,0,0-.03-.08-.09-.21-.06-.14-.15-.35-.29-.62-.14-.27-.32-.6-.63-.94-.04-.04-.08-.08-.12-.12-.04-.04-.09-.08-.13-.12-.05-.04-.1-.08-.15-.12-.05-.04-.11-.07-.16-.11-.23-.14-.49-.25-.78-.33-.29-.08-.61-.11-.93-.11-.33,0-.67.02-1.02.06-.35.04-.71.09-1.08.14-.37.05-.75.08-1.13.09-.19,0-.39,0-.58-.03-.19-.02-.38-.06-.58-.1-.39-.1-.78-.26-1.18-.45-.4-.19-.81-.41-1.26-.63-.22-.11-.45-.22-.69-.32-.06-.02-.12-.05-.18-.08-.06-.02-.13-.05-.19-.07-.06-.02-.13-.05-.19-.07-.06-.02-.13-.04-.19-.06-1.04-.32-2.2-.45-3.39-.31-.58.07-1.17.19-1.75.39l-1.99.77c-.17.1-.38.16-.64.2-.14.02-.3.04-.46.04-.19-.05-.39-.14-.62-.25-.26-.13-.55-.29-.87-.43-.64-.29-1.33-.5-2.02-.64-.09-.02-.18-.03-.26-.05-.09-.01-.18-.03-.26-.04-.18-.03-.35-.04-.53-.07-.18-.01-.35-.03-.53-.04-.09,0-.18,0-.27-.01h-.13s-.13,0-.13,0c-1.42-.04-2.83.1-4.22.21-.7.05-1.39.11-2.08.12-.54.01-1.08,0-1.61-.03,0,0,0,0,.01,0-.12,0-.25-.01-.37-.04-.08,0-.17-.01-.25-.02-.24-.03-.48-.07-.71-.12-.18-.03-.37-.07-.55-.13-.07-.01-.13-.03-.2-.05,0,0,0,0-.01,0-.1-.03-.2-.06-.3-.09-.62-.21-1.22-.52-1.78-.89l-.05-.03-.05-.04-.1-.07c-.07-.05-.14-.1-.2-.15l-.2-.16s-.07-.05-.1-.08l-.09-.08-.19-.17-.18-.18s-.05-.05-.07-.07c-.03-.06-.07-.13-.1-.19-.06-.12-.12-.24-.19-.35l-.2-.34-.1-.17-.11-.17-.22-.33c-.07-.11-.15-.21-.23-.32-.15-.22-.31-.42-.47-.62-.08-.1-.16-.2-.25-.3-.08-.1-.17-.2-.25-.3l-.1-.11h-1.95c0,.46,0,1.06,0,1.53Z"/>
      <path class="cls-1" d="M108.88,152.27s.1-.01.18-.03c.15-.04.39-.12.62-.34.11-.11.22-.25.32-.41.1-.16.2-.33.32-.5.24-.35.53-.75.87-1.15.17-.19.37-.38.59-.5.22-.12.49-.16.8-.16.15,0,.31,0,.47.01.08,0,.17,0,.26,0,.09,0,.18,0,.27,0,.18,0,.36-.03.55-.06.09-.02.18-.04.27-.06.05-.01.09-.02.14-.03.05-.01.09-.03.14-.04.37-.1.72-.26,1.07-.46.04-.03.09-.05.13-.08.04-.03.09-.05.13-.08.08-.06.17-.12.25-.17.08-.06.16-.13.24-.19.04-.03.08-.06.12-.1l.11-.11s.02-.02.03-.03c.03-.38.06-1.09.04-1.07-.06.08-.11.15-.16.22-.12.14-.23.28-.37.41l-.1.1s-.07.06-.1.09c-.07.06-.13.12-.21.17-.07.05-.14.11-.21.16-.03.03-.07.05-.11.07-.04.02-.07.05-.11.07-.3.18-.61.34-.93.45-.04.01-.08.03-.12.04-.04.01-.08.02-.12.03-.08.02-.16.04-.24.06-.16.03-.32.07-.48.08-.08,0-.16.02-.24.02-.08,0-.16,0-.24,0-.16,0-.33,0-.5.02-.17.01-.34.03-.5.08-.17.04-.33.11-.47.2-.29.18-.49.41-.66.64-.33.45-.59.87-.79,1.25-.1.19-.19.37-.27.54s-.16.3-.26.41c-.19.22-.41.33-.55.38-.07.03-.13.04-.17.05-.04,0-.06.01-.06.01,0,0,.02,0,.06,0Z"/>
      <path class="cls-1" d="M124.46,142.47c.07.28.06.42.05.56,0,.21-.05.44-.12.67-.06.23-.15.48-.22.73-.08.25-.15.52-.19.79,0,.07-.02.14-.02.21,0,.07-.01.14-.01.21,0,.07,0,.14,0,.2,0,.07,0,.13.01.2.02.26.07.51.13.75.03.12.07.23.1.34.04.11.07.22.11.32.16.42.33.8.48,1.15.08.18.14.35.21.52.06.16.11.32.16.48.08.32.13.62.15.91.01.28,0,.54-.05.77-.09.46-.29.78-.46.96-.08.09-.16.16-.21.2-.05.04-.08.06-.08.06,0,0,.03-.02.09-.05.06-.03.14-.08.24-.17.1-.08.22-.2.33-.35.11-.16.22-.36.3-.59.16-.48.23-1.11.13-1.82-.03-.18-.06-.36-.11-.55-.05-.18-.1-.37-.16-.56-.11-.38-.24-.77-.35-1.17-.03-.1-.05-.2-.08-.31-.02-.1-.04-.21-.06-.31-.04-.21-.05-.42-.05-.63,0-.05,0-.1,0-.16,0-.05,0-.1.01-.16,0-.05.02-.1.02-.15,0-.05.02-.1.03-.15.05-.21.12-.42.21-.65.09-.23.19-.47.29-.74.09-.27.18-.56.22-.89.02-.16.02-.33.01-.49,0-.08-.01-.16-.02-.25-.01-.08-.02-.16-.04-.24-.06-.32-.17-.63-.3-.92-.05-.11-.1-.22-.15-.32.17.09.34.17.51.23.15.05.3.1.45.13.15.04.3.07.44.09.29.05.58.08.85.12.55.07,1.07.14,1.52.33.11.05.21.1.31.16.1.06.19.13.27.21.16.15.3.34.42.55.12.21.24.43.38.65.03.06.07.11.11.16.04.05.08.11.12.16.04.05.09.1.13.15.04.05.08.1.13.14.36.36.78.63,1.2.81.43.18.87.28,1.29.31.42.03.83-.01,1.19-.11.09-.02.18-.05.27-.08.04-.02.09-.03.13-.05.04-.02.08-.03.12-.05.16-.07.3-.13.44-.14.14-.02.27.01.39.08.12.07.23.16.32.25.2.18.35.38.48.56.25.37.38.7.45.92.02.06.03.11.04.15.01.04.02.08.03.11.01.05.02.08.02.09,0,0,0-.04-.01-.09,0-.03,0-.07-.02-.11,0-.04-.02-.1-.03-.15-.05-.23-.15-.58-.38-.97-.12-.2-.26-.41-.46-.61-.1-.1-.2-.21-.34-.3-.07-.04-.15-.08-.23-.11-.09-.03-.18-.03-.27-.03-.18.01-.35.07-.51.13-.04.01-.08.03-.12.04-.04.01-.08.02-.12.03-.08.02-.16.05-.25.06-.34.07-.71.09-1.1.04-.38-.05-.77-.16-1.15-.34-.37-.18-.73-.44-1.03-.76-.04-.04-.07-.08-.11-.13-.03-.04-.07-.09-.11-.13-.03-.05-.06-.09-.09-.14-.03-.05-.06-.09-.09-.14-.12-.2-.22-.42-.35-.66-.06-.12-.13-.23-.21-.35-.08-.12-.18-.23-.28-.34-.11-.1-.22-.2-.34-.28-.12-.08-.25-.16-.39-.22-.13-.06-.27-.11-.41-.16-.14-.04-.28-.08-.42-.11-.28-.06-.56-.11-.84-.15-.55-.08-1.11-.16-1.6-.34-.49-.18-.92-.51-1.31-.93-.22-.24-.43-.51-.63-.79-.05-.1-.09-.19-.13-.29-.05-.12-.09-.25-.13-.38-.15-.51-.21-1.08-.19-1.66.01-.37.06-.76.12-1.14-.37.64-1.04,1.07-1.47,1.6.03.54.12,1.08.29,1.6.05.17.12.33.19.49.07.16.15.31.23.46.16.29.33.56.5.81.15.22.29.43.42.63.16.34.42.75.61,1.12"/>
      <path class="cls-1" d="M118.44,129.36s5.55.82,5.09,5.96c-.46,5.14-1.47,2.14-1.47,1.6,0-1.91,0-5.53-3.42-5.37-4.18.2-.2-2.2-.2-2.2Z"/>
      <path class="cls-1" d="M166.51,105.08c.1-.91-.12-1.51-.12-1.51,0,0-.85.16-1.45.77-.92.93-.56,1.99-.33,2.44.07-.31.21-.8.36-1.14.46-.99.95-1.34.95-1.34,0,0-.4.41-.84,1.4-.15.34-.31.82-.41,1.11.49-.08,1.69-.31,1.84-1.74Z"/>
    </g>
  </g>
</svg>