<?xml version="1.0" encoding="UTF-8"?>
<!DOCTYPE svg PUBLIC "-//W3C//DTD SVG 1.1//EN" "http://www.w3.org/Graphics/SVG/1.1/DTD/svg11.dtd">
<!-- Creator: CorelDRAW -->
<svg xmlns="http://www.w3.org/2000/svg" xml:space="preserve" width="3508px" height="2480px" version="1.1" style="shape-rendering:geometricPrecision; text-rendering:geometricPrecision; image-rendering:optimizeQuality; fill-rule:evenodd; clip-rule:evenodd"
viewBox="0 0 3508 2480.4"
 xmlns:xlink="http://www.w3.org/1999/xlink"
 xmlns:xodm="http://www.corel.com/coreldraw/odm/2003">
 <defs>
  <style type="text/css">
   <![CDATA[
    .fil0 {fill:#FF690F}
    .fil1 {fill:black}
   ]]>
  </style>
 </defs>
 <g id="Слой_x0020_1">
  <metadata id="CorelCorpID_0Corel-Layer"/>
  <path class="fil0" d="M1751.97 589.39l-37.86 0c-0.1,0.06 -0.26,0.01 -0.32,0.14 -0.46,1.08 -7.25,0.28 -8,0.31 -2.21,0.06 -2.12,0.37 -4.14,0.48 -1.49,0.07 -3.12,-0.1 -4.6,0.02 -5.3,0.43 -11.26,1.01 -16.63,1.37 -10.88,0.74 -21.62,2.41 -32.28,4.2 -24.5,4.13 -47.82,10.71 -70.7,19.8l-12.74 5.27c-6.6,2.76 -23.92,11.08 -30.3,14.96 -9.45,5.75 -19.52,10.34 -28.72,16.53l-11.27 7.2c-3.71,2.48 -7.09,4.9 -10.71,7.29 -3.54,2.34 -6.83,5.02 -10.35,7.65l-15.04 12.21c-1.12,0.85 -1.38,1.22 -2.43,2.19 -1.05,0.99 -1.48,1.09 -2.54,2.07 -1.6,1.48 -2.78,2.92 -4.38,4.4l-4.85 4.39c-4.49,4.52 -10.12,7.49 -14.3,12.48l-17.02 19.45c-6.57,8.44 -14.14,16.16 -20.24,25.02l-7.76 10.71c-9.36,13.98 -22.56,35.49 -30.07,51.19 -4.98,10.4 -9.71,20.44 -14.03,31.23 -1.78,4.46 -3.68,8.88 -5.15,13.31 -0.78,2.34 -1.6,4.33 -2.31,6.47 -5.5,16.51 -10.41,32.46 -13.87,49.84 -1.68,8.46 -4.6,22.15 -5.12,30.9l-1.72 16.29c-0.56,4.16 -0.35,8.97 -0.58,13.27 -0.11,2.02 -0.42,1.93 -0.48,4.14 -0.18,5.87 0.01,12.1 0.01,18.02 0,6.46 0.49,11.26 0.46,17.55 -0.03,6.26 0.88,18.94 1.72,25.52 0.39,3.06 0.37,5.42 0.79,8.45 2.86,21.03 6.23,40.6 11.97,60.52 7.76,26.98 18.31,52.67 30.77,77.73 3.95,7.94 8.55,15.73 13.13,23.35l29.82 43.15c-2.33,-0.55 -35.46,-15.85 -42.89,-18.53 -10.25,-3.69 -22.99,-11.9 -29.75,2.22 -5.26,11.02 4,19.03 11.16,21.91 8.24,3.32 16.07,7.4 24.27,10.82 10.36,4.33 20.12,9.19 30.54,13.33 14.59,5.79 28.24,13.66 43.2,18.67 4.98,1.67 9.21,2.97 13.72,-0.02 3.25,-2.14 7.22,-5.85 7.48,-10.1l-0.47 -8.3c0.03,-5.79 -1.23,-18.32 -1.99,-24.33l-3.57 -31.52c-0.9,-10.54 -2.96,-21.3 -3.67,-31.89 -0.18,-2.68 -0.51,-5.67 -0.81,-7.96 -0.38,-2.96 -0.36,-5.1 -0.78,-7.99 -3.42,-23.7 -23.32,-19.68 -27.66,-9.58 -6.04,14.05 3.38,45.64 3.38,62.95 -1.59,-1.07 -1.67,-1.74 -2.81,-3.2 -9.76,-12.46 -19,-25.51 -26.58,-39.44 -10.96,-20.13 -18.13,-34.03 -27.08,-56.96 -11.11,-28.48 -21.05,-65.72 -23.39,-96.67 -0.27,-3.72 -0.21,-7.64 -0.75,-11.25 -1.19,-7.86 -0.32,-21.09 -0.21,-29.84 0.03,-2.56 0.46,-2.93 0.49,-5.5l0.47 -17.54c0.73,-8.85 1.32,-18.46 2.55,-27.47 2.69,-19.63 4.78,-31.05 9.62,-50.4 1.63,-6.5 3.47,-12.32 5.53,-18.49 2.03,-6.1 4.15,-11.67 6.49,-17.52 2.4,-6.01 4.67,-11.23 7.18,-16.83 1.33,-2.95 2.38,-5.22 3.86,-8.14l12.17 -23.85c7.81,-13.98 14.64,-23.89 23.31,-36.71 0.88,-1.3 1.6,-2.17 2.56,-3.45 5.97,-8 11.79,-16.1 18.72,-23.29l5.76 -6.25c8.13,-8.13 15.6,-16.16 23.77,-24.25l15.86 -14.16c15.79,-12.27 24.95,-18.77 42.22,-30.27l11.17 -6.84c10.08,-6.09 20.88,-11.22 31.46,-16.56 2.82,-1.42 5.37,-2.37 8.32,-3.69 38.52,-17.12 83.02,-28.1 125.89,-30.17l23.09 -0.92c4.01,0 8.02,-0.02 12.02,-0.02 2.67,0.01 3.15,0.43 5.51,0.5 1.94,0.05 4.04,-0.17 5.95,0.05 7.18,0.81 14.73,0.98 22.04,1.98 7.61,1.04 14.34,1.85 21.43,3.03 20.45,3.4 38.76,7.92 57.78,14.26 6.1,2.03 11.74,3.95 17.76,6.25 8.03,3.08 28.92,13.4 35.23,12.69 6.15,-0.69 10.72,-6.03 12.18,-11.83 1.98,-7.77 -3.68,-12.31 -7.9,-15.44 -6.02,-4.46 -16.89,-8.7 -24.34,-11.67 -14.66,-5.84 -29.81,-10.91 -45.27,-14.76 -22.93,-5.71 -46.84,-10.67 -70.91,-13.13l-11.47 -1z"/>
  <path class="fil0" d="M2017.94 741.3c0,14.9 2.77,24.35 3.71,38.31 0.73,10.9 2.76,21.93 3.69,32.79l3.26 33.22c2.72,28.79 22.15,22.47 26.94,15.47 6.4,-9.36 3,-14.73 2.12,-25.14 -0.39,-4.62 -0.95,-9 -1.48,-13.76 -0.88,-7.86 -3.15,-20.24 -3.15,-27.32 3.01,2.01 15.31,20.64 16.62,22.62 5.17,7.74 10.49,16.17 14.78,24.48l6.77 12.61c27.68,55.46 43.1,108.33 43.1,173.47 0,2.46 -0.01,4.92 0,7.39 0.02,3.24 -0.48,4.39 -0.48,7.37 0,2.4 0.21,4.92 -0.11,7.27 -0.28,2.07 -0.13,4.97 -0.46,7.39 -1.19,8.73 -1.51,18.78 -2.97,27.51 -0.76,4.56 -1.24,8.71 -2.1,13.13 -2.42,12.36 -5.03,25.76 -8.5,37.68 -6.63,22.83 -14.41,45.49 -25.09,66.79l-10.62 20.32c-4.18,8.11 -9.36,15.91 -14.41,23.46 -5.15,7.71 -10.56,15.2 -16.38,22.4l-10.31 12.32c-4.07,5.33 -11.73,12.69 -16.51,18.12 -0.7,0.8 -1.3,1.32 -2.07,2.08 -3.72,3.7 -7.26,8 -11.36,11.27l-8.42 7.28c-9.68,8.09 -28.28,22.6 -38.94,30.32l-18.36 12.11c-9.76,5.89 -19.56,10.8 -29.78,15.94 -6.85,3.44 -14.11,6.37 -21.26,9.21 -11.35,4.52 -22.7,8.22 -34.47,11.71 -8.05,2.39 -16.15,4.46 -24.65,6.28 -8.1,1.74 -17.05,3.58 -25.65,4.83 -4.66,0.68 -8.79,1.4 -13.33,1.9 -14.51,1.61 -28.52,2.91 -43.34,2.84 -3.05,-0.01 -3.98,0.48 -6.9,0.5 -3.23,0.02 -4.41,-0.5 -7.38,-0.5 -32.06,-0.04 -63.55,-4.48 -94.05,-13.54 -19.18,-5.7 -38.07,-12.39 -56.19,-20.46 -22.05,-9.8 -43.03,8.72 -9.39,27.86 12.02,6 24.43,10.98 37.42,15.22 6.95,2.27 13.79,3.8 20.91,5.87 20.61,6.02 44.17,10.66 66.23,13.19 20.79,2.39 38.03,1.89 59.06,1.89 4.59,0 7.93,-0.47 12.02,-0.45 7.82,0.03 25.99,-2.55 34.18,-3.68 31.35,-4.34 60.68,-12.35 89.62,-23.97l17.93 -7.46c9.97,-4.48 20.06,-8.93 29.37,-14.5l35.66 -21.6c8.79,-5.84 20.89,-14.41 28.84,-21.49 1.13,-1.02 2.35,-2.03 3.5,-2.96l29.97 -27.29c1.1,-1.11 1.93,-1.87 3.01,-2.99l5.99 -6.48c1.4,-1.38 1.78,-2.07 3.01,-3.46 7.92,-8.99 15.93,-18.08 23.13,-27.65l25.26 -37.54c1.76,-2.93 3,-5.25 4.67,-8.26l4.5 -7.97c9.32,-15.61 21.23,-45.02 26.83,-61.82l8.62 -29.24c14.28,-52.34 17.22,-115.91 8.49,-170.29 -4.14,-25.86 -10.81,-51.03 -19.6,-75.51 -5.77,-16.03 -17.88,-43.36 -26.58,-57.93 -6.55,-10.98 -12.72,-22.15 -19.84,-32.79 -4.48,-6.69 -15.37,-20.01 -17.83,-24.66 17.17,4 58.13,34.76 71.01,20.67 1.06,-1.16 2.23,-2.7 2.83,-4.09 3.48,-8.08 -0.76,-14.52 -7.43,-18.8 -4.75,-3.04 -10.16,-5.13 -15.35,-7.28 -10.79,-4.48 -20.64,-9.37 -31.4,-13.85l-31.35 -13.9c-5.35,-2.49 -10.4,-4.38 -15.7,-6.92 -4.64,-2.23 -10.89,-5.24 -17.39,-5.24 -7.8,0 -12.47,7.77 -12.47,15.7z"/>
  <path class="fil1" d="M1924.2 1781.15l34.17 0c1.77,0 3.35,-8.21 4.26,-11.45l22.69 -80.74c0.59,-2.04 1.51,-4.6 1.68,-6.62l7.75 25.03c2.36,8.4 4.56,16.7 6.97,24.89 2.44,8.3 4.6,16.52 7.04,24.82 1.18,4.02 2.23,8.03 3.44,12.26l2.57 9.43c0.33,1.23 0.25,2.38 1.78,2.38l34.17 0c1.73,0 3,-6.23 3.7,-8.77 0.84,-3.1 1.88,-6.33 2.95,-9.52l40.05 -131.26c0.47,-1.39 1.17,-3.34 1.32,-5.14l-37.4 0c-0.05,2.19 -2.36,9.41 -3.05,12.19l-22.32 83.41c-0.43,1.73 -0.23,1.89 -1.41,2.76 -0.05,-2.42 -6.04,-21.77 -6.83,-24.57 -1.38,-4.95 -20.82,-71.4 -20.87,-73.79l-37.41 0c-0.04,2.12 -6.12,22.14 -6.86,24.53l-14.32 48.95c-1.22,4.19 -2.33,7.87 -3.55,12.15 -0.75,2.63 -3.39,10.91 -3.43,12.73 -1.47,-1.08 -1.3,-2.42 -2.03,-5.36l-11.46 -43.49c-0.51,-1.88 -12.77,-46.97 -12.83,-49.51l-38.32 0c0.03,1.73 4.74,16.57 5.59,19.34l38.17 126.21c0.78,2.8 2.07,9.14 3.79,9.14z"/>
  <path class="fil1" d="M1316.09 1707.27c0,9.45 -4.14,19.44 -8.12,25.13 -17.41,24.91 -60.65,22.45 -74.23,-6.04 -1.77,-3.7 -3.03,-7.66 -3.8,-12.36 -2.45,-14.89 -0.09,-27.92 7.74,-39.43 2.28,-3.36 4.74,-5.67 7.96,-8.2 9.22,-7.27 17.59,-8.51 29.82,-8.51 14.46,0 29.99,10.24 35.47,21.78 5.08,10.7 5.16,16.1 5.16,27.63zm-45.71 77.11l4.15 0c0.1,-0.06 0.27,-0.24 0.32,-0.14l1.51 -0.34c2.22,-0.18 3.28,0.23 7.09,-0.3 11.06,-1.53 21.32,-4.07 30.82,-9.81 7.17,-4.33 11.35,-7.03 17.4,-13.07 0.84,-0.84 1.54,-1.44 2.29,-2.33 8.12,-9.72 12.77,-15.52 17.17,-28.55 4.24,-12.55 5.05,-31.97 1.9,-44.74 -1,-4.06 -0.71,-3.85 -2.24,-7.91 -1.08,-2.86 -1.54,-4.75 -2.84,-7.32 -2.99,-5.93 -7.39,-13.73 -12.12,-18.36 -2.89,-2.83 -5.84,-6.67 -10.23,-10.08 -2,-1.56 -3.89,-2.98 -5.82,-4.34 -3.62,-2.57 -8.7,-5.49 -12.93,-7.39 -13.71,-6.15 -36.62,-8.48 -52.44,-4.89 -8.01,1.82 -15.66,4.12 -22.51,7.97 -2.24,1.26 -4.27,2.4 -6.41,3.75l-11.34 8.97c-1.99,1.84 -2.95,3.46 -4.84,5.32 -5,4.91 -8.71,12.31 -11.89,18.58 -3.97,7.85 -5.26,15.06 -6.61,23.87 -1.39,9.14 -0.16,26.99 2.98,35.64 7.99,22 18.07,33.55 36.56,44.7 6.41,3.87 14.53,6.56 22.02,8.46 2.92,0.74 5.34,1.03 8.73,1.43 1.61,0.18 2.65,0.44 4.65,0.43 1.42,-0.01 3.44,-0.3 4.63,0.45z"/>
  <path class="fil1" d="M1585.75 1656.94l24.47 0c5.91,0 13.35,2.79 16.29,5.87 4.99,5.2 8.56,22.87 -5.67,29.22 -8.19,3.66 -24.81,2.77 -35.09,2.77l0 -37.86zm-37.4 124.21l37.4 0 0 -56.8c15.51,0 11.95,-1.75 16.77,6.32l26.02 43.24c1.5,2.51 3,4.77 4.31,7.24l43.86 0 -10.3 -16.02c-6.39,-10.81 -26.78,-40.17 -31.26,-48.63 4.08,-0.34 11.97,-4.91 14.71,-6.99 4.94,-3.73 7.53,-5.85 11.15,-11.01 10.1,-14.36 9.22,-36.76 -0.09,-50.7l-7.89 -8.74c-1.06,-0.9 -2.08,-1.41 -3.29,-2.25 -9.41,-6.56 -22.03,-10.35 -33.52,-10.35l-67.87 0 0 154.69z"/>
  <path class="fil1" d="M2174.47 1666.64c0.4,1.72 1.71,4.94 2.44,6.79l7.06 19.26c1.75,4.53 3.19,8.89 4.76,13.25l4.67 12.87 -37.86 0 18.93 -52.17zm-78.5 114.51l40.17 0c0.3,-1.26 0.93,-2.54 1.34,-3.75l9.75 -27.65 54.94 0c0.15,1.8 0.6,2.38 1.19,3.89 0.57,1.44 0.8,2.29 1.3,3.79 1.27,3.85 7.94,21.43 8.13,23.72l41.56 0c-0.15,-1.75 -2.59,-7.59 -3.37,-9.56l-18.2 -48.3c-1.31,-3.36 -2.43,-6.29 -3.65,-9.73 -1.23,-3.44 -2.45,-6.2 -3.7,-9.7 -5.74,-16.1 -12.47,-32.27 -18.23,-48.25l-7.28 -19.5c-0.59,-1.64 -1.29,-3.17 -1.83,-4.64 -0.64,-1.73 -1.19,-3.48 -1.92,-5.01l-42.94 0 -6.99 19.33c-2.35,6.28 -4.8,12.57 -7.15,19.17 -9.05,25.35 -19.5,51.94 -28.75,77.46l-10.74 28.96c-0.52,1.39 -1.2,3.21 -1.78,4.69 -0.53,1.33 -1.53,3.72 -1.85,5.08z"/>
  <path class="fil1" d="M1443.53 1784.38l6.93 0c1.52,-0.97 4.22,-0.35 5.98,-0.49 27.04,-2.06 48.85,-20.5 54.86,-48.57 2.85,-13.33 1.49,-37.35 1.49,-53.45 0,-18.47 0,-36.94 0,-55.41l-36.94 0c0,25.4 0,50.8 0,76.19 0,19.18 2.8,40.51 -20.42,46.07 -1.65,0.39 -6.88,1.12 -8.65,1.05 -10.1,-0.42 -19.82,-3.95 -24.99,-12.92 -4.7,-8.16 -4.12,-21.32 -4.12,-34.2 0,-25.39 0,-50.79 0,-76.19l-37.4 0 0 82.66c0,8.86 0.39,18.22 2.04,25.66 5.92,26.65 23.22,43.79 48.81,48.16 1.93,0.32 4.4,0.64 6.07,0.85l6.34 0.59z"/>
  <path class="fil1" d="M2310.22 1658.32l26.32 0c5.07,0 11.84,2.51 14.79,4.61 3.44,2.44 5.99,7.53 5.99,13.4 0,9.55 -0.57,13.85 -8.86,18.39 -6.94,3.79 -28.82,2.85 -38.24,2.85l0 -39.25zm-37.4 122.83l37.4 0 0 -52.18c26.84,0 53.79,1.63 71.93,-16.73 6.73,-6.81 12.11,-19.8 12.11,-30.83 0,-11.9 -0.39,-21.56 -7.32,-31.47 -6.89,-9.86 -13.31,-14.49 -25.46,-19.33 -4.83,-1.92 -14.55,-4.15 -21.25,-4.15l-67.41 0 0 154.69z"/>
  <path class="fil1" d="M1802.3 1784.38l4.62 0c0.1,-0.06 0.27,-0.24 0.32,-0.14l1.51 -0.34c0.73,-0.06 2.02,0.01 2.8,0.02 6.16,0.08 17.11,-2.3 22.69,-4.55 11.94,-4.8 23.12,-14.1 28.23,-26.25 4.66,-11.08 5.23,-25.49 -0.14,-36.16 -1.17,-2.33 -2.34,-4.63 -4.05,-6.57 -0.59,-0.67 -0.69,-0.69 -1.29,-1.47 -6.39,-8.25 -23.7,-15.55 -33.5,-18.68 -5.56,-1.78 -11.62,-2.92 -17.09,-4.61 -2.81,-0.87 -5.29,-1.93 -7.85,-2.78 -2.95,-0.98 -5.28,-1.98 -7.8,-3.28 -14.57,-7.52 -8.1,-29.11 24.97,-24.51 5.88,0.82 12.22,2.63 16.91,4.8 3.03,1.4 11.78,6.42 12.62,9.55 1.5,-1.01 7.98,-11.29 9.51,-13.58 1.27,-1.91 8.79,-12.08 8.96,-14.13 -1.68,-0.44 -2.46,-1.73 -3.76,-2.71 -21.65,-16.25 -56.73,-20.26 -81.08,-10.55 -19.78,7.88 -34.03,27.45 -30.42,49.56 3.86,23.72 21.8,32.01 42.47,38.8 11.94,3.92 32.83,6.64 37.94,16.54 4.14,8.03 -1.41,13.58 -8.09,16.88 -5.6,2.77 -15.37,3.78 -23.38,2.58 -10.77,-1.61 -26.43,-5.98 -34.24,-13.32 -1.28,-1.2 -1.96,-2.63 -3.8,-3.12 -0.45,1.68 -8.77,14.52 -10.59,17.57 -0.76,1.28 -1.33,2.08 -2.14,3.4l-4.35 7.2c2.02,0.53 4.04,2.69 5.73,3.96 1.98,1.51 4.22,2.5 6.36,3.8 3.44,2.08 9.95,4.62 13.82,6.04 7.48,2.73 16.49,4.16 24.79,5.21l8.31 0.47c1,0.21 0.46,0.02 1.01,0.37z"/>
  <polygon class="fil1" points="1063.52,1660.17 1104.61,1660.17 1104.61,1781.15 1142.01,1781.15 1142.01,1660.17 1183.11,1660.17 1183.11,1626.46 1063.52,1626.46 "/>
  <g id="_2256649135952">
   <path class="fil1" d="M1653.62 1304.63c-7.79,0 -14.75,-3.32 -20.04,-8.59l-0.67 -0.71c-2.79,-3.05 -3.08,-3.66 -5,-7.47 -2.62,-5.21 -3.35,-11.5 -2.27,-17.68 0.81,-4.69 3.79,-10.63 6.85,-13.93 9.22,-9.9 24.52,-12.22 35.14,-6.26 3.56,2 5.06,3.29 7.82,6.03 15.8,15.7 6.44,48.61 -21.83,48.61zm137.14 -29.09c0,-8.33 3.69,-15.52 7.96,-19.74 7.35,-7.28 12.69,-8.89 22.98,-8.89 18.31,0 33.61,21.48 24.17,41.26 -8.64,18.11 -32.77,21.98 -46.69,8.04 -4.56,-4.56 -8.42,-11.87 -8.42,-20.67zm-195.78 -343.07c0,-12.68 10.16,-22.17 23.09,-22.17l240.1 0c6.57,0 12.13,2.43 15.6,5.65 3.05,2.83 7.03,8.58 7.03,14.21l0 313.98c0,6.11 -5.67,13.51 -11.54,16.62 -1.22,-2.53 -1.95,-5.29 -3.23,-7.85 -5.99,-11.94 -16.33,-21.32 -29.03,-25.92 -4.02,-1.45 -13.01,-3.41 -18.27,-2.9 -12.49,1.2 -21.48,2.98 -31.99,11.87 -6.41,5.42 -16.58,19.07 -16.76,27.11l-66.03 0c-0.24,-2.96 -1.76,-6.05 -2.75,-8.32 -1.34,-3.05 -2.18,-4.47 -3.85,-7.24 -2.03,-3.38 -7.23,-9.18 -10.21,-11.49 -14.54,-11.3 -32.15,-15.32 -49.86,-9.15 -10.4,3.63 -18.46,9.98 -24.89,18.52 -2.46,3.27 -6.22,10.04 -7.25,14.45 -5.62,-3.76 -10.16,-10 -10.16,-19.39l0 -307.98zm93.27 -233.65c0,-1.06 0.33,-1.38 1.39,-1.38l88.65 0c1.07,0 1.39,0.32 1.39,1.38l0 188.86 -91.43 0 0 -188.86zm-22.16 0.93l0 187.93 -43.87 0c-17.51,0 -32.26,5.2 -41.84,19.57 -5.96,8.94 -8.02,17.17 -8.02,29.37l0 299.67c0,17.74 5.3,30.99 17.8,40.38 3.46,2.6 8.45,5.63 13.13,6.72 0,7.82 5.92,18.18 10.42,24.21 1.13,1.52 1.64,1.86 2.85,3.15 0.51,0.54 0.82,0.96 1.32,1.45 4.53,4.53 9.46,7.89 15.57,10.75 18.03,8.43 40.2,4.18 54.7,-8.73 4.74,-4.22 6.67,-6.29 10.29,-12.33 5.7,-9.52 4.96,-13.12 6.44,-16.19l64.18 0c1.93,8.28 5.46,16.25 10.76,22.48 1.91,2.25 3.3,4.04 5.67,5.88 3.21,2.49 4.96,4.58 9.66,6.96 14.81,7.52 27.46,8.06 43,2.84 14.48,-4.87 28.09,-20.13 31.67,-35.75 1.51,-6.61 0.76,-2.72 8.84,-6.87 13.71,-7.03 24.77,-22.05 24.77,-37.56l0 -313.52c0,-6.7 -2.46,-13.23 -4.77,-17.86 -1.48,-2.96 -2.64,-4.7 -4.46,-7.09 -9.86,-12.93 -23.77,-17.53 -40.18,-17.53l-52.18 0 0 -188.86c0,-16.47 -12.8,-24.01 -27.24,-24.01l-81.27 0c-9.38,0 -14.39,1.86 -19.5,6.35 -4.53,3.98 -7.74,10.19 -7.74,18.59z"/>
   <polygon class="fil1" points="1753.36,1192.43 1775.98,1192.43 1775.98,957.86 1753.36,957.86 "/>
   <polygon class="fil1" points="1806.46,1192.43 1829.09,1192.43 1829.09,957.86 1806.46,957.86 "/>
   <polygon class="fil1" points="1697.03,1192.43 1719.65,1192.43 1719.65,957.86 1697.03,957.86 "/>
   <polygon class="fil1" points="1644.39,1192.43 1666.55,1192.43 1666.55,957.86 1644.39,957.86 "/>
  </g>
 </g>
</svg>
